<?xml version="1.0" standalone="no"?>
<!DOCTYPE svg PUBLIC "-//W3C//DTD SVG 20010904//EN"
 "http://www.w3.org/TR/2001/REC-SVG-20010904/DTD/svg10.dtd">
<svg version="1.0" xmlns="http://www.w3.org/2000/svg"
 width="16.000000pt" height="16.000000pt" viewBox="0 0 16.000000 16.000000"
 preserveAspectRatio="xMidYMid meet">
<metadata>
Created by potrace 1.11, written by Peter Selinger 2001-2013
</metadata>
<g transform="translate(0.000000,16.000000) scale(0.002286,-0.002286)"
fill="#000000" stroke="none">
<path d="M3625 6923 c-19 -46 -53 -153 -50 -153 3 0 0 -12 -6 -26 -5 -15 -12
-43 -15 -63 -3 -20 -7 -47 -10 -61 -13 -75 -16 -117 -15 -240 0 -74 2 -144 4
-155 3 -11 8 -45 12 -75 32 -250 151 -533 312 -742 241 -315 667 -556 1073
-606 124 -16 368 -5 480 20 25 5 56 12 69 14 213 41 457 156 641 302 72 58
247 239 238 247 -7 6 -429 245 -433 245 -2 0 -41 -37 -87 -82 -134 -132 -288
-224 -452 -268 -107 -29 -159 -35 -296 -34 -149 1 -256 25 -400 87 -342 147
-557 386 -646 717 -26 95 -28 120 -28 265 1 140 4 171 26 250 14 50 28 97 32
106 7 17 8 17 -159 109 -33 18 -69 38 -80 45 -11 6 -47 27 -80 45 -33 18 -74
41 -91 51 -30 18 -32 18 -39 2z"/>
<path d="M3220 6884 c-41 -24 -82 -49 -90 -54 -8 -5 -55 -32 -105 -61 -49 -29
-107 -62 -127 -75 l-37 -24 20 -57 c69 -201 66 -450 -8 -672 -116 -350 -481
-637 -898 -707 -66 -11 -255 -8 -335 6 -194 33 -378 129 -535 281 l-80 78 -35
-21 c-19 -11 -111 -66 -205 -120 -93 -55 -176 -106 -183 -112 -10 -10 4 -31
74 -104 179 -191 412 -331 674 -406 47 -14 96 -27 110 -30 14 -2 49 -9 79 -15
167 -33 399 -32 573 4 684 139 1190 677 1284 1365 3 25 8 54 10 65 6 32 5 234
-2 305 -10 108 -78 367 -102 392 -4 4 -41 -13 -82 -38z"/>
<path d="M4905 6606 c-201 -48 -332 -225 -321 -429 10 -177 126 -319 304 -372
28 -9 78 -13 128 -11 327 13 505 389 310 655 -95 129 -269 194 -421 157z"/>
<path d="M1896 6528 c-267 -35 -416 -315 -298 -559 46 -95 137 -167 249 -197
67 -18 88 -19 168 -7 217 31 367 283 295 494 -62 185 -229 293 -414 269z"/>
<path d="M6495 5089 c-146 -33 -191 -47 -278 -81 -114 -46 -214 -101 -312
-171 -86 -62 -94 -69 -216 -189 -255 -254 -397 -537 -446 -895 -10 -67 -9
-376 0 -443 4 -30 9 -66 11 -80 5 -41 36 -160 58 -225 121 -359 398 -690 743
-887 57 -32 247 -113 290 -123 11 -3 56 -14 100 -25 44 -11 90 -20 102 -20
l23 0 -3 251 -2 252 -101 28 c-398 111 -680 408 -763 804 -20 96 -29 308 -16
375 2 14 7 41 9 60 41 314 255 615 545 764 83 42 223 91 286 99 l30 4 3 256
c2 203 0 257 -10 256 -7 -1 -31 -5 -53 -10z"/>
<path d="M424 4809 c1 -159 5 -253 11 -255 265 -66 418 -146 568 -298 131
-132 246 -330 272 -468 2 -11 6 -27 9 -36 3 -9 8 -35 11 -57 3 -23 8 -52 10
-65 8 -36 7 -237 0 -295 -32 -239 -125 -439 -283 -607 -135 -143 -288 -232
-491 -287 -41 -11 -77 -18 -81 -16 -4 3 -11 -2 -14 -11 -6 -17 -9 -504 -2
-504 2 0 48 9 103 20 351 70 643 261 916 599 144 179 261 462 292 711 14 103
14 115 14 235 1 115 -1 143 -13 245 -67 545 -485 1067 -1011 1263 -81 30 -200
62 -266 72 l-46 7 1 -253z"/>
<path d="M6494 3904 c-220 -45 -355 -257 -300 -472 69 -269 387 -381 609 -213
207 155 198 482 -18 626 -91 60 -189 80 -291 59z"/>
<path d="M371 3868 c-155 -23 -290 -155 -320 -311 -35 -190 77 -378 263 -441
46 -16 147 -22 191 -12 196 45 321 209 310 408 -11 221 -221 389 -444 356z"/>
<path d="M5088 2225 c-2 -2 -34 -5 -73 -8 -38 -3 -95 -11 -125 -16 -30 -6 -65
-13 -78 -16 -59 -11 -248 -81 -342 -127 -94 -45 -221 -125 -305 -189 -36 -28
-210 -201 -245 -244 -134 -163 -266 -448 -314 -680 -24 -115 -26 -135 -32
-270 -9 -188 20 -379 83 -548 25 -68 25 -68 49 -52 23 15 208 123 329 192 89
51 88 50 65 114 -87 250 -68 521 56 776 79 162 207 303 368 408 279 181 543
237 856 180 162 -29 368 -144 507 -283 59 -60 71 -67 88 -58 24 13 408 238
414 242 12 10 -116 148 -209 225 -215 179 -546 315 -835 344 -71 7 -252 14
-257 10z"/>
<path d="M1635 2185 c-122 -17 -134 -20 -260 -55 -105 -30 -246 -84 -310 -120
-163 -92 -278 -182 -392 -306 -43 -46 -79 -88 -80 -92 -2 -5 393 -236 429
-250 4 -2 36 24 71 59 147 147 359 270 507 295 14 3 32 7 40 10 54 19 263 25
376 11 131 -16 315 -91 471 -192 385 -251 550 -702 424 -1164 -11 -41 -18 -78
-15 -82 2 -4 17 -14 32 -22 39 -19 125 -68 252 -141 141 -83 147 -85 160 -51
77 203 107 492 74 714 -85 567 -392 992 -895 1239 -100 49 -287 116 -354 128
-16 2 -55 9 -85 15 -84 16 -343 18 -445 4z"/>
<path d="M4970 1238 c-59 -10 -95 -25 -149 -61 -62 -42 -96 -82 -134 -157 -30
-60 -32 -72 -32 -165 0 -87 3 -107 26 -155 123 -255 450 -309 638 -105 64 70
103 164 104 255 3 241 -216 428 -453 388z"/>
<path d="M1890 1209 c-112 -21 -224 -108 -273 -212 -104 -219 14 -480 243
-541 185 -49 372 38 455 212 35 71 43 192 19 273 -56 187 -248 303 -444 268z"/>
</g>
</svg>
