<svg style="position: absolute; width: 0; height: 0; overflow: hidden;" version="1.1" xmlns="http://www.w3.org/2000/svg">
<defs>
<symbol id="icon-whs-logo" viewBox="0 0 87 32">
<title>whs-logo</title>
<path fill="#00b8f1" style="fill: var(--color1, #00b8f1)" d="M41.152 9.664h-0.768l-0.896-2.912-0.896 2.912h-0.768l-1.28-4.8h0.992l0.736 3.008 0.864-3.008h0.704l0.864 3.008 0.736-3.008h0.992l-1.28 4.8z"></path>
<path fill="#00b8f1" style="fill: var(--color1, #00b8f1)" d="M45.536 9.184c-0.352 0.352-0.736 0.512-1.28 0.512s-0.96-0.192-1.312-0.512c-0.48-0.48-0.48-1.088-0.48-1.92s0-1.44 0.48-1.92c0.352-0.352 0.768-0.512 1.312-0.512s0.96 0.192 1.28 0.512c0.48 0.48 0.48 1.088 0.48 1.92s0 1.408-0.48 1.92zM44.832 5.92c-0.128-0.16-0.352-0.256-0.608-0.256s-0.48 0.096-0.608 0.256c-0.192 0.192-0.224 0.416-0.224 1.344s0.032 1.152 0.224 1.344c0.128 0.16 0.352 0.256 0.608 0.256s0.48-0.096 0.608-0.256c0.192-0.192 0.224-0.416 0.224-1.344 0.032-0.928-0.032-1.152-0.224-1.344z"></path>
<path fill="#00b8f1" style="fill: var(--color1, #00b8f1)" d="M49.184 9.664l-0.928-1.92h-0.672v1.92h-0.928v-4.8h1.888c0.992 0 1.568 0.672 1.568 1.472 0 0.672-0.416 1.088-0.864 1.248l1.056 2.080h-1.12zM48.448 5.696h-0.896v1.28h0.896c0.416 0 0.672-0.256 0.672-0.64s-0.256-0.64-0.672-0.64z"></path>
<path fill="#00b8f1" style="fill: var(--color1, #00b8f1)" d="M50.816 9.664v-4.8h0.928v3.968h1.952v0.832h-2.88z"></path>
<path fill="#00b8f1" style="fill: var(--color1, #00b8f1)" d="M57.216 9.216c-0.32 0.32-0.768 0.448-1.28 0.448h-1.728v-4.8h1.728c0.512 0 0.96 0.128 1.28 0.448 0.544 0.544 0.48 1.184 0.48 1.92s0.064 1.44-0.48 1.984zM56.576 5.984c-0.16-0.192-0.384-0.288-0.704-0.288h-0.704v3.136h0.704c0.32 0 0.544-0.096 0.704-0.288 0.16-0.224 0.192-0.544 0.192-1.28s-0.032-1.056-0.192-1.28z"></path>
<path fill="#00b8f1" style="fill: var(--color1, #00b8f1)" d="M39.616 16.16v-2.016h-1.632v2.016h-0.928v-4.8h0.928v1.952h1.632v-1.952h0.928v4.8h-0.928z"></path>
<path fill="#00b8f1" style="fill: var(--color1, #00b8f1)" d="M43.040 16.192c-0.992 0-1.76-0.672-1.76-1.696v-3.168h0.928v3.104c0 0.544 0.32 0.896 0.832 0.896s0.832-0.32 0.832-0.896v-3.104h0.928v3.168c0 1.024-0.8 1.696-1.76 1.696z"></path>
<path fill="#00b8f1" style="fill: var(--color1, #00b8f1)" d="M48.896 16.16v-2.784l-0.928 1.824h-0.64l-0.928-1.824v2.784h-0.928v-4.8h0.928l1.248 2.592 1.248-2.592h0.928v4.8h-0.928z"></path>
<path fill="#00b8f1" style="fill: var(--color1, #00b8f1)" d="M53.344 16.16l-0.288-0.864h-1.696l-0.288 0.864h-0.992l1.76-4.8h0.736l1.76 4.8h-0.992zM52.224 12.768l-0.608 1.76h1.184l-0.576-1.76z"></path>
<path fill="#00b8f1" style="fill: var(--color1, #00b8f1)" d="M57.408 16.16l-1.888-2.944v2.944h-0.928v-4.8h0.832l1.888 2.944v-2.944h0.928v4.8h-0.832z"></path>
<path fill="#00b8f1" style="fill: var(--color1, #00b8f1)" d="M59.040 16.16v-4.8h0.928v4.8h-0.928z"></path>
<path fill="#00b8f1" style="fill: var(--color1, #00b8f1)" d="M62.56 12.192v3.968h-0.928v-3.968h-1.248v-0.832h3.456v0.832h-1.28z"></path>
<path fill="#00b8f1" style="fill: var(--color1, #00b8f1)" d="M66.56 16.16l-0.288-0.864h-1.696l-0.288 0.864h-0.992l1.76-4.8h0.736l1.76 4.8h-0.992zM65.44 12.768l-0.608 1.76h1.184l-0.576-1.76z"></path>
<path fill="#00b8f1" style="fill: var(--color1, #00b8f1)" d="M70.496 16.16l-0.928-1.92h-0.672v1.92h-0.928v-4.8h1.888c0.992 0 1.568 0.672 1.568 1.472 0 0.672-0.416 1.088-0.864 1.248l1.056 2.080h-1.12zM69.76 12.192h-0.896v1.28h0.896c0.416 0 0.672-0.256 0.672-0.64s-0.256-0.64-0.672-0.64z"></path>
<path fill="#00b8f1" style="fill: var(--color1, #00b8f1)" d="M72 16.16v-4.8h0.928v4.8h-0.928z"></path>
<path fill="#00b8f1" style="fill: var(--color1, #00b8f1)" d="M76.576 16.16l-0.288-0.864h-1.696l-0.288 0.864h-0.992l1.76-4.8h0.736l1.76 4.8h-0.992zM75.456 12.768l-0.608 1.76h1.184l-0.576-1.76z"></path>
<path fill="#00b8f1" style="fill: var(--color1, #00b8f1)" d="M80.64 16.16l-1.888-2.944v2.944h-0.928v-4.8h0.832l1.888 2.944v-2.944h0.928v4.8h-0.832z"></path>
<path fill="#00b8f1" style="fill: var(--color1, #00b8f1)" d="M38.368 22.688c-0.736 0-1.28-0.16-1.76-0.64l0.608-0.608c0.288 0.288 0.704 0.416 1.152 0.416 0.544 0 0.864-0.224 0.864-0.608 0-0.16-0.032-0.32-0.16-0.416-0.096-0.096-0.192-0.128-0.416-0.16l-0.576-0.096c-0.416-0.064-0.704-0.192-0.928-0.384-0.224-0.224-0.352-0.544-0.352-0.928 0-0.864 0.64-1.44 1.664-1.44 0.672 0 1.152 0.16 1.536 0.544l-0.608 0.576c-0.288-0.288-0.672-0.32-0.992-0.32-0.512 0-0.736 0.288-0.736 0.608 0 0.128 0.032 0.256 0.128 0.352s0.256 0.16 0.448 0.192l0.576 0.096c0.448 0.064 0.704 0.192 0.928 0.384 0.256 0.256 0.384 0.608 0.384 1.024 0.032 0.896-0.736 1.408-1.76 1.408z"></path>
<path fill="#00b8f1" style="fill: var(--color1, #00b8f1)" d="M42.4 22.688c-0.992 0-1.76-0.672-1.76-1.696v-3.168h0.928v3.104c0 0.544 0.32 0.896 0.832 0.896s0.832-0.32 0.832-0.896v-3.104h0.928v3.168c0 1.024-0.768 1.696-1.76 1.696z"></path>
<path fill="#00b8f1" style="fill: var(--color1, #00b8f1)" d="M48.128 22.656v-2.816l-0.928 1.824h-0.64l-0.928-1.824v2.784h-0.928v-4.8h0.928l1.248 2.592 1.248-2.592h0.928v4.8h-0.928z"></path>
<path fill="#00b8f1" style="fill: var(--color1, #00b8f1)" d="M53.12 22.656v-2.816l-0.928 1.824h-0.64l-0.928-1.824v2.784h-0.928v-4.8h0.928l1.248 2.592 1.248-2.592h0.928v4.8h-0.928z"></path>
<path fill="#00b8f1" style="fill: var(--color1, #00b8f1)" d="M54.688 22.656v-4.8h0.928v4.8h-0.928z"></path>
<path fill="#00b8f1" style="fill: var(--color1, #00b8f1)" d="M58.24 18.688v3.968h-0.928v-3.968h-1.248v-0.832h3.456v0.832h-1.28z"></path>
<path fill="#9f66a9" style="fill: var(--color2, #9f66a9)" d="M25.408 9.888c-1.024 0.288-2.048 0.16-3.072-0.416s-1.664-1.376-1.92-2.432c-0.224-0.8-0.16-1.568 0.128-2.368l-1.664-0.928c-0.448 1.152-0.512 2.368-0.16 3.68 0.448 1.536 1.344 2.688 2.752 3.488s2.88 0.992 4.448 0.576c1.28-0.32 2.304-0.992 3.072-1.984l-1.632-0.928c-0.512 0.64-1.184 1.088-1.952 1.312z"></path>
<path fill="#9f66a9" style="fill: var(--color2, #9f66a9)" d="M24.694 5.134c0.737 0.419 0.995 1.357 0.576 2.095s-1.357 0.995-2.095 0.576c-0.737-0.419-0.995-1.357-0.576-2.095s1.357-0.995 2.095-0.576z"></path>
<path fill="#50b748" style="fill: var(--color3, #50b748)" d="M20.544 25.92c0.256-1.056 0.896-1.856 1.888-2.432s2.016-0.736 3.072-0.48c0.8 0.224 1.44 0.64 1.984 1.28l1.632-0.96c-0.768-0.992-1.824-1.632-3.104-1.952-1.536-0.384-3.008-0.16-4.416 0.64-1.376 0.8-2.304 2.016-2.72 3.552-0.352 1.28-0.288 2.496 0.192 3.648l1.632-0.96c-0.32-0.768-0.384-1.536-0.16-2.336z"></path>
<path fill="#50b748" style="fill: var(--color3, #50b748)" d="M25.329 25.538c0.403 0.685 0.174 1.568-0.511 1.971s-1.568 0.174-1.971-0.511c-0.403-0.685-0.174-1.568 0.511-1.971s1.568-0.174 1.971 0.511z"></path>
<path fill="#f05a22" style="fill: var(--color4, #f05a22)" d="M16.192 7.072c-0.256 1.056-0.896 1.856-1.888 2.432s-2.016 0.736-3.072 0.48c-0.8-0.224-1.44-0.64-1.984-1.28l-1.632 0.96c0.768 0.992 1.824 1.632 3.104 1.952 1.536 0.384 3.008 0.16 4.416-0.64 1.376-0.8 2.304-2.016 2.72-3.552 0.352-1.28 0.288-2.496-0.192-3.648l-1.632 0.96c0.288 0.736 0.352 1.536 0.16 2.336z"></path>
<path fill="#f05a22" style="fill: var(--color4, #f05a22)" d="M13.875 5.957c0.403 0.686 0.174 1.568-0.511 1.971s-1.568 0.174-1.971-0.511c-0.403-0.686-0.174-1.568 0.511-1.971s1.568-0.174 1.971 0.511z"></path>
<path fill="#00b8f1" style="fill: var(--color1, #00b8f1)" d="M27.616 19.264c-0.768-0.768-1.152-1.728-1.152-2.88s0.384-2.112 1.152-2.88c0.576-0.576 1.28-0.928 2.112-1.056v-1.888c-1.248 0.16-2.336 0.736-3.264 1.696-1.12 1.12-1.664 2.496-1.664 4.128 0 1.6 0.544 2.976 1.696 4.16 0.928 0.96 2.016 1.504 3.264 1.696v-1.888c-0.832-0.16-1.568-0.512-2.144-1.088z"></path>
<path fill="#00b8f1" style="fill: var(--color1, #00b8f1)" d="M31.2 16.384c0 0.795-0.645 1.44-1.44 1.44s-1.44-0.645-1.44-1.44c0-0.795 0.645-1.44 1.44-1.44s1.44 0.645 1.44 1.44z"></path>
<path fill="#f9a51a" style="fill: var(--color5, #f9a51a)" d="M9.152 13.664c0.768 0.768 1.152 1.728 1.152 2.88s-0.384 2.112-1.152 2.88c-0.576 0.576-1.28 0.928-2.112 1.056v1.888c1.248-0.16 2.336-0.736 3.264-1.696 1.12-1.12 1.664-2.496 1.664-4.128 0-1.6-0.544-2.976-1.696-4.16-0.928-0.96-2.016-1.504-3.264-1.696v1.888c0.864 0.16 1.568 0.512 2.144 1.088z"></path>
<path fill="#f9a51a" style="fill: var(--color5, #f9a51a)" d="M7.037 15.094c0.795 0.001 1.439 0.647 1.438 1.442s-0.647 1.439-1.442 1.438c-0.795-0.001-1.439-0.647-1.438-1.442s0.647-1.439 1.442-1.438z"></path>
<path fill="#a5cd39" style="fill: var(--color6, #a5cd39)" d="M13.424 25.12c0.691 0.393 0.933 1.272 0.54 1.964s-1.272 0.933-1.964 0.54c-0.691-0.393-0.933-1.272-0.54-1.964s1.272-0.933 1.964-0.54z"></path>
<path fill="#a5cd39" style="fill: var(--color6, #a5cd39)" d="M11.264 23.104c1.024-0.288 2.048-0.16 3.072 0.416s1.664 1.376 1.92 2.432c0.224 0.8 0.16 1.568-0.128 2.368l1.632 0.928c0.448-1.152 0.512-2.368 0.128-3.68-0.448-1.536-1.344-2.688-2.752-3.488s-2.88-0.992-4.448-0.576c-1.28 0.32-2.304 0.992-3.072 1.984l1.632 0.928c0.576-0.64 1.216-1.088 2.016-1.312z"></path>
</symbol>
<symbol id="icon-safeguard" viewBox="0 0 30 32">
<title>safeguard</title>
<path fill="#fff" style="fill: var(--color7, #fff)" d="M29.598 27.211c-4.331-3.358-8.166-6.944-11.646-10.852-0.16-0.188-0.287-0.252-0.429-0.252-0.001 0-0.003 0-0.004 0h-0.082q0.023-0.735 0.023-1.503c0.001-0.011 0.001-0.023 0.001-0.036 0-0.256-0.207-0.463-0.463-0.463s-0.463 0.207-0.463 0.463c0 0.013 0 0.025 0.002 0.038q-0 0.775-0.023 1.502h-0.040c-0 0-0.001 0-0.001 0-0.137 0-0.261 0.060-0.346 0.155-1.306 1.484-2.628 2.86-3.894 4.106v-10.424c-0.001-0.070-0.018-0.136-0.046-0.195 0.039-0.060 0.062-0.136 0.063-0.217-0.002-1.375-1.115-2.488-2.489-2.49h-0.885l2.602-1.803c0.121-0.084 0.2-0.222 0.201-0.379v-3.956c-0.002-0.255-0.209-0.46-0.463-0.46-0.098 0-0.189 0.031-0.264 0.083l-3.18 2.192v-2.26c-0.003-0.254-0.209-0.458-0.463-0.458 0 0-0 0-0 0h-2.012c-0.256 0-0.463 0.207-0.463 0.463v2.26l-3.199-2.215c-0.073-0.051-0.165-0.082-0.263-0.082-0.255 0-0.462 0.206-0.463 0.46v3.956c0 0.158 0.079 0.297 0.199 0.38l2.61 1.809h-1.232c-1.372 0.003-2.484 1.117-2.484 2.489 0 0.004 0 0.008 0 0.012 0.003 0.098 0.036 0.188 0.091 0.261-0.019 0.043-0.030 0.094-0.032 0.148l-0 10.456c-0.034 0.060-0.055 0.132-0.057 0.209 0.001 0.25 0.015 0.496 0.042 0.737 0.321 2.699 2.401 4.861 5.062 5.305-0.416 0.361-0.682 0.57-0.693 0.57-0.125 0.084-0.205 0.225-0.205 0.385 0 0.256 0.207 0.463 0.463 0.463 0.009 0 0.017-0 0.026-0.001l2.463 0v3.464c0 0.231 0.169 0.422 0.39 0.457 0.159 0.022 0.339 0.035 0.522 0.035 0.016 0 0.033-0 0.049-0 1.784-0.033 3.406-0.715 4.641-1.82 1.748-1.5 3.019-3.8 3.799-6.871v8.194c0 0 0 0 0 0 0 0.255 0.206 0.462 0.46 0.463l9.438 0.023c0 0 0 0 0 0 0.256 0 0.463-0.207 0.463-0.463 0-0.002 0-0.004-0-0.006l-0.040-3.481h2.458c0.007 0 0.016 0.001 0.025 0.001 0.256 0 0.463-0.207 0.463-0.463 0-0.16-0.081-0.301-0.204-0.384zM26.397 27.126c0 0-0 0-0 0-0.256 0-0.463 0.207-0.463 0.463 0 0.002 0 0.004 0 0.006l0.042 3.486-8.505-0.020v-13.845c3.226 3.576 6.658 6.82 10.332 9.776zM12.15 29.465c-1.065 0.971-2.477 1.579-4.030 1.616l-0.041 0v-3.498c-0.003-0.249-0.201-0.45-0.449-0.458l-1.589-0c3.817-3.069 7.225-6.289 10.361-9.759-0.347 7.188-2.452 10.548-4.252 12.099zM3.3 19.497v-3.775c0.001-0.011 0.001-0.023 0.001-0.036 0-0.256-0.207-0.463-0.463-0.463s-0.463 0.207-0.463 0.463c0 0.013 0.001 0.025 0.002 0.038l-0 3.751c-0.003 0.092-0.005 0.2-0.005 0.308 0 0.355 0.020 0.706 0.060 1.051l-1.445-0.042v-10.384h10.33v10.384h-7.957c-0.040-0.311-0.063-0.672-0.063-1.037 0-0.090 0.001-0.18 0.004-0.27zM2.323 21.093l1.164-0.056c0.17 1.065 0.692 2.419 2.229 2.591 0.305 0.018 0.545 0.269 0.545 0.576 0 0.319-0.258 0.577-0.577 0.577-0.011 0-0.023-0-0.034-0.001l-0.063 0c-2.179-0.249-3.026-2.091-3.264-3.687zM7.892 3.758l2.86-1.978v2.84l-2.86 1.978zM5.759 0.932h1.088v5.942h-1.088zM1.831 1.78l2.86 1.978v2.837l-2.86-1.978z"></path>
<path fill="#fff" style="fill: var(--color7, #fff)" d="M23.588 25.221h-1.079c-0.081 0-0.147 0.066-0.147 0.147v1.543h-1.342v-1.543c0-0.081-0.066-0.147-0.147-0.147h-1.077c-0.081 0-0.147 0.066-0.147 0.147v4.391c0 0.081 0.066 0.147 0.147 0.147h1.079c0.081 0 0.147-0.066 0.147-0.147v-1.594h1.342v1.594c0 0.081 0.066 0.147 0.147 0.147h1.079c0.081 0 0.147-0.066 0.147-0.147v-4.391c0 0 0-0 0-0 0-0.081-0.066-0.147-0.147-0.147-0.001 0-0.002 0-0.003 0z"></path>
</symbol>
<symbol id="icon-leave-no-one" viewBox="0 0 35 32">
<title>leave-no-one</title>
<path fill="#fff" style="fill: var(--color7, #fff)" d="M31.178 18.187l1.679-1.854c1.488-1.637 2.4-3.822 2.4-6.22 0-2.717-1.17-5.16-3.034-6.854l-0.949-0.855c-1.639-1.486-3.824-2.396-6.223-2.396-2.711 0-5.15 1.163-6.846 3.017l-5.554 6.125-3.645 4.069c-0.089 0.097-0.144 0.227-0.144 0.37 0 0.161 0.070 0.306 0.18 0.406 0.373 0.336 0.81 0.611 1.288 0.804l-10.189 11.286c-0.088 0.097-0.142 0.227-0.142 0.369 0 0.127 0.043 0.243 0.115 0.336 0.157 0.202 3.896 4.95 9.237 5.201 0.136 0 0.283 0 0.404 0 4.64 0 8.195-3.674 8.783-4.315l7.72-3.688 1.602-0.695c0.13-0.064 0.23-0.174 0.281-0.307 0.023-0.061 0.036-0.127 0.036-0.196 0-0.087-0.020-0.168-0.056-0.241-0.211-0.439-0.475-0.818-0.789-1.149 0.314 0 0.619-0.026 0.917-0.076 0.008-0.002 0.046-0.012 0.081-0.025 0.662 0.516 1.51 0.827 2.429 0.827 0.021 0 0.042-0 0.062-0-0 0 0.003 0 0.007 0 0.624 0 1.219-0.122 1.762-0.345 0.166-0.080 0.3-0.276 0.3-0.503 0-0.098-0.025-0.191-0.069-0.271zM13.465 9.89l5.553-6.121c1.5-1.647 3.654-2.677 6.048-2.677 2.113 0 4.038 0.802 5.488 2.118l0.934 0.842c1.65 1.499 2.681 3.654 2.681 6.049 0 2.114-0.803 4.040-2.122 5.49l-1.441 1.59-3.818-6.471c-0.093-0.17-0.27-0.283-0.473-0.283-0.005 0-0.009 0-0.014 0l-3.744 0.096c1.315-0.872 2.216-2.28 2.391-3.904 0.005-0.044 0.006-0.067 0.006-0.090 0-0.303-0.246-0.549-0.549-0.549-0.28 0-0.511 0.21-0.545 0.48-0.438 3.594-4.185 4.1-4.765 4.157l-1.113 0.028 0.616-0.687c0.088-0.097 0.142-0.227 0.142-0.369 0-0.303-0.246-0.549-0.549-0.549-0.161 0-0.306 0.069-0.407 0.18l-3.374 3.708c-0.602 0.669-1.471 1.088-2.438 1.088-0.647 0-1.25-0.187-1.758-0.511zM15.799 17.642l2.648 4.592c-1.433 0.565-2.179-0.141-2.323-0.305l-1.837-3.309c-0.077-0.131-0.123-0.289-0.123-0.457 0-0.335 0.18-0.628 0.449-0.786 0.129-0.070 0.276-0.109 0.433-0.109 0.309 0 0.581 0.153 0.747 0.387zM19.453 21.776l-2.617-4.538c0-0.020-0.017-0.042-0.028-0.065s-0.051-0.076-0.076-0.116l-0.794-1.373c-0.076-0.131-0.121-0.287-0.121-0.455 0-0.337 0.182-0.631 0.453-0.789 0.134-0.080 0.291-0.125 0.458-0.125 0.089 0 0.175 0.013 0.256 0.037 0.205 0.058 0.377 0.197 0.478 0.381l0.002 0.024 2.574 4.476 1.046 1.794zM22.095 20.584l-1.096-1.89-1.433-2.487c-0.012-0.031-0.023-0.056-0.036-0.080l-0.62-1.073c-0.078-0.131-0.124-0.289-0.124-0.458 0-0.337 0.183-0.631 0.456-0.789 0.136-0.079 0.295-0.125 0.464-0.125 0.141 0 0.275 0.032 0.394 0.088 0.165 0.076 0.303 0.201 0.396 0.355l1.217 2.118c0.043 0.112 0.086 0.205 0.136 0.294l0.616 1.065c0.026 0.047 0.058 0.087 0.096 0.121l0.489 0.848c0.249 0.581 0.592 1.077 1.014 1.491-0.635 0.017-1.231 0.169-1.766 0.427zM22.703 15.288c0.11-0.394 0.466-0.678 0.889-0.678 0.14 0 0.273 0.031 0.392 0.087 0.165 0.081 0.303 0.21 0.396 0.369l1.008 1.756 1.888 3.264c0.016 0.027 0.031 0.050 0.049 0.072l0.095 0.149c-2.447 0.059-3.326-2.074-3.363-2.17-0.011-0.029-0.023-0.055-0.038-0.078l-1.307-2.273c-0.022-0.075-0.035-0.161-0.035-0.25s0.013-0.175 0.036-0.257zM28.236 19.544l-0.025-0.045-1.874-3.227-1.006-1.746c-0.352-0.608-1-1.010-1.742-1.010-0.695 0-1.307 0.353-1.667 0.89l-0.471-0.804c-0.354-0.609-1.003-1.012-1.746-1.012-0.76 0-1.422 0.422-1.764 1.044-0.189-0.136-0.406-0.252-0.642-0.322-0.18-0.053-0.371-0.081-0.568-0.081-0.371 0-0.719 0.1-1.018 0.275-0.595 0.348-0.996 0.994-0.996 1.733 0 0.34 0.084 0.659 0.233 0.94-0.33 0.003-0.63 0.096-0.89 0.248-0.596 0.348-0.996 0.994-0.996 1.734 0 0.367 0.098 0.71 0.27 1.006l1.851 3.336c0.014 0.027 0.029 0.050 0.046 0.072 0.451 0.587 1.822 1.471 3.774 0.612l3.778-1.695c0.411-0.2 0.895-0.317 1.405-0.317 1.089 0 2.054 0.532 2.649 1.351l-1.039 0.464h-0.017l-7.816 3.753c-0.069 0.034-0.127 0.080-0.175 0.135-0.040 0.043-3.753 4.239-8.391 4.016-4.032-0.186-7.175-3.357-8.124-4.425l10.309-11.371c0.092 0.007 0.199 0.010 0.307 0.010s0.215-0.004 0.321-0.011c1.185-0.065 2.246-0.607 2.992-1.439l1.75-1.875 2.125-0.054h0.124l6.793-0.184 3.956 6.757c0.025 0.073 0.063 0.136 0.111 0.19l1.446 2.464c-0.848 0.161-2.331 0.172-3.292-1.413z"></path>
</symbol>
<symbol id="icon-ending-need" viewBox="0 0 31 32">
<title>ending-need</title>
<path fill="#fff" style="fill: var(--color7, #fff)" d="M30.924 16.618c-0.307-0.147-0.667-0.233-1.048-0.233-0.003 0-0.006 0-0.010 0-0.922 0.003-1.728 0.502-2.165 1.244-0.043 0.049-0.073 0.092-0.095 0.141l-2.165 4.627-3.924 0.625 0.678-0.6c0.41-0.364 0.668-0.892 0.668-1.481 0-0.495-0.182-0.947-0.482-1.294l-0.118-0.16c-0.085-0.113-0.219-0.185-0.37-0.185-0.12 0-0.229 0.046-0.312 0.121l-5.925 5.272-6.049-5.272c-0.081-0.072-0.188-0.115-0.305-0.115-0.151 0-0.285 0.072-0.369 0.184l-0.121 0.164c-0.301 0.343-0.484 0.795-0.484 1.291 0 0.587 0.258 1.114 0.667 1.474l0.68 0.602-3.924-0.625-2.161-4.625c-0.023-0.050-0.053-0.093-0.090-0.129-0.446-0.754-1.254-1.251-2.179-1.251-0.378 0-0.736 0.083-1.057 0.232-0.143 0.070-0.251 0.229-0.251 0.414 0 0.070 0.015 0.137 0.043 0.196l0.82 1.805 2.486 5.345c0.169 0.358 0.466 0.633 0.831 0.77l6.673 3.053v3.321c0 0.001 0 0.002 0 0.003 0 0.255 0.207 0.462 0.462 0.462 0 0 0 0 0 0h8.54c0.257 0 0.465-0.208 0.465-0.465v-3.316l6.66-3.052c0.375-0.139 0.672-0.415 0.837-0.764l2.501-5.365 0.818-1.805c0.026-0.056 0.041-0.122 0.041-0.191 0-0.184-0.107-0.343-0.262-0.419zM11.517 27.49l-6.985-3.19c-0.146-0.054-0.262-0.161-0.326-0.296l-2.502-5.351-0.6-1.323c0.067-0.010 0.144-0.016 0.222-0.016 0.629 0 1.172 0.365 1.43 0.895 0.023 0.049 0.045 0.083 0.072 0.114l2.183 4.683c0.066 0.137 0.193 0.235 0.345 0.26l5.751 0.917c0.020 0.003 0.042 0.005 0.066 0.005 0.255 0 0.462-0.207 0.462-0.462 0-0.132-0.055-0.251-0.144-0.335l-1.875-1.657c-0.206-0.175-0.343-0.425-0.367-0.708-0.002-0.024-0.002-0.047-0.002-0.070 0-0.181 0.045-0.351 0.125-0.5l5.634 4.905c-0.645 0.804-1.802 2.66-1.886 5.712h-1.331v-3.156c-0.002-0.188-0.116-0.35-0.277-0.422zM29.486 18.644l-2.495 5.353c-0.067 0.139-0.184 0.245-0.327 0.296l-0.040 0.018-6.948 3.178c-0.165 0.073-0.278 0.235-0.28 0.423v3.159h-5.348c0.112-3.719 1.987-5.471 2.004-5.488l5.763-5.124c0.075 0.14 0.118 0.307 0.118 0.484 0 0.311-0.135 0.59-0.35 0.782l-1.879 1.657c-0.096 0.086-0.155 0.209-0.155 0.347 0 0.257 0.208 0.465 0.465 0.465 0.024 0 0.048-0.002 0.071-0.005l5.746-0.927c0.156-0.024 0.284-0.123 0.349-0.258l2.185-4.684c0.027-0.031 0.050-0.066 0.069-0.104 0.261-0.546 0.805-0.915 1.436-0.916 0.078 0 0.155 0.006 0.23 0.018z"></path>
<path fill="#fff" style="fill: var(--color7, #fff)" d="M8.938 13.602h0.524l0.653 4.266c0.018 0.348 0.296 0.626 0.643 0.642 0.343-0.028 0.613-0.3 0.638-0.64 0.012 0.353 0.3 0.638 0.655 0.645 0.193-0.001 0.364-0.096 0.468-0.242l-0.501-4.029c-0.199-0.159-0.334-0.391-0.364-0.654-0.002-0.020-0.002-0.037-0.002-0.055s0.001-0.035 0.002-0.053c-0.042-0.611-0.151-2.072-0.182-2.52 0-0.14-0.017-0.238-0.017-0.356 0-0.001 0-0.002 0-0.003 0-1.055 0.854-1.911 1.908-1.914h0.090c0 0 0 0 0 0 1.056 0 1.913 0.855 1.914 1.911 0 0.118 0 0.216-0.017 0.356-0.031 0.462-0.137 1.92-0.179 2.523 0.001 0.015 0.001 0.033 0.001 0.050s-0.001 0.035-0.002 0.053c-0.031 0.265-0.165 0.496-0.36 0.655l-0.487 4.088c0.168 0.269 0.463 0.445 0.799 0.445 0.451 0 0.828-0.318 0.918-0.742l0.024-0.006v-0.022c0.106 0.45 0.503 0.779 0.978 0.779 0.003 0 0.006 0 0.009-0h0.022c-0.147-0.095-0.246-0.253-0.258-0.436l-0-0.002-0.499-3.125h-0.401c-0 0-0 0-0 0-0.254 0-0.46-0.206-0.46-0.46 0-0.003 0-0.006 0-0.009v-0.078c-0.001-0.005-0.001-0.010-0.001-0.015s0.001-0.011 0.002-0.016l1.079-5.188 0.025-0.109c0.141-0.55 0.632-0.949 1.216-0.95h0.076c0.585 0 1.077 0.4 1.217 0.941l0.338 1.64 0.118 0.561 0.653 3.108c0.001 0.005 0.001 0.010 0.001 0.015s-0.001 0.011-0.002 0.016 0 0.047 0 0.078c0 0.002 0 0.004 0 0.006 0 0.255-0.207 0.462-0.462 0.462 0 0-0 0-0 0h-0.42l-0.519 3.097c-0.021 0.171-0.106 0.318-0.231 0.419 0.053 0.013 0.115 0.021 0.179 0.021 0.002 0 0.003 0 0.005 0 0.006 0 0.012 0 0.019 0 0.416 0 0.763-0.295 0.843-0.687l0.026-0.006c0.103 0.412 0.469 0.713 0.905 0.715 0 0 0 0 0 0 0.468 0 0.848-0.374 0.858-0.84l0.76-6.047c0.25-0.205 0.418-0.5 0.456-0.835 0.002-0.025 0.003-0.048 0.003-0.070s-0.001-0.045-0.003-0.067c0.051-0.776 0.188-2.615 0.227-3.201 0-0.179 0.025-0.3 0.025-0.451-0.002-1.336-1.085-2.419-2.422-2.419h-0.118c-0 0-0 0-0.001 0-0.664 0-1.265 0.269-1.701 0.704-0.345-1.060-1.325-1.813-2.48-1.813h-0.126c-0 0-0 0-0 0-1.429 0-2.588 1.152-2.601 2.577 0.554 0.032 0.991 0.489 0.991 1.048 0 0.579-0.469 1.048-1.048 1.048s-1.048-0.469-1.048-1.048c0-0.51 0.364-0.935 0.846-1.029l-0.058-0.304-0.028-0.146c-0.19-0.704-0.817-1.216-1.565-1.23l-0.114-0c-0.001 0-0.002 0-0.003 0-0.762 0-1.403 0.517-1.592 1.219l-0.033 0.157-1.401 6.803c-0.001 0.006-0.001 0.013-0.001 0.020s0 0.014 0.001 0.020-0 0.064-0 0.103c-0 0.003-0 0.007-0 0.011 0 0.331 0.269 0.6 0.6 0.6 0.002 0 0.004 0 0.006-0zM17.84 5.701c0.602 0.002 1.090 0.49 1.090 1.093s-0.489 1.093-1.093 1.093-1.093-0.489-1.093-1.093c0 0 0 0 0 0 0-0.604 0.489-1.093 1.093-1.093 0.001 0 0.002 0 0.003 0z"></path>
<path fill="#fff" style="fill: var(--color7, #fff)" d="M16.018 2.845c0.785 0 1.421-0.636 1.421-1.421s-0.636-1.421-1.421-1.421c-0.785 0-1.421 0.636-1.421 1.421s0.636 1.421 1.421 1.421z"></path>
<path fill="#fff" style="fill: var(--color7, #fff)" d="M17.778 18.412s0.017-0.017 0.022-0.028 0-0.028 0-0.042l-0.017 0.070z"></path>
<path fill="#fff" style="fill: var(--color7, #fff)" d="M20.326 4.022c0.001 0 0.002 0 0.003 0 0.729 0 1.32-0.591 1.32-1.32s-0.591-1.32-1.32-1.32c-0.729 0-1.32 0.591-1.32 1.32 0 0 0 0 0 0 0 0.728 0.589 1.319 1.317 1.32z"></path>
<path fill="#fff" style="fill: var(--color7, #fff)" d="M11.43 4.016c0.853-0.002 1.544-0.694 1.544-1.547 0-0.854-0.693-1.547-1.547-1.547s-1.547 0.693-1.547 1.547c0.002 0.855 0.695 1.547 1.55 1.547 0 0 0 0 0 0z"></path>
</symbol>
<symbol id="icon-public" viewBox="0 0 35 32">
<title>public</title>
<path fill="none" stroke="#fff" stroke-width="1.0394" stroke-miterlimit="10" stroke-linecap="butt" stroke-linejoin="miter" style="stroke: var(--color7, #fff)" d="M27.718 20.539l1.254 3.86h4.054l-3.281 2.384 1.254 3.856-3.281-2.384-3.281 2.384 1.254-3.856-3.281-2.384h4.054l1.254-3.86z"></path>
<path fill="none" stroke="#fff" stroke-width="1.0394" stroke-miterlimit="10" stroke-linecap="butt" stroke-linejoin="miter" style="stroke: var(--color7, #fff)" d="M20.268 30.316h-19.749v-5.63s0.346-8.637 10.64-8.637"></path>
<path fill="none" stroke="#fff" stroke-width="1.0394" stroke-miterlimit="10" stroke-linecap="butt" stroke-linejoin="miter" style="stroke: var(--color7, #fff)" d="M26.851 18.103s-2.813-2.079-5.845-2.079"></path>
<path fill="none" stroke="#fff" stroke-width="1.0394" stroke-miterlimit="10" stroke-linecap="butt" stroke-linejoin="miter" style="stroke: var(--color7, #fff)" d="M10.824 16.052c-2.394-1.528-3.634-4.113-3.634-7.044 0-4.688 4.033-8.489 9.008-8.489s9.008 3.811 9.008 8.489c-0.022 2.891-1.511 5.429-3.759 6.91"></path>
</symbol>
<symbol id="icon-about" viewBox="0 0 37 32">
<title>about</title>
<path fill="none" stroke="#fff" stroke-width="0.9063" stroke-miterlimit="10" stroke-linecap="butt" stroke-linejoin="miter" style="stroke: var(--color7, #fff)" d="M4.531 14.446h-1.926c-0.031 0.002-0.067 0.003-0.103 0.003-1.090 0-1.981-0.85-2.049-1.923l-0-0.006c0.067-1.079 0.959-1.928 2.049-1.928 0.036 0 0.073 0.001 0.108 0.003l1.921-0v-2.325h-1.926c-0.031 0.002-0.067 0.003-0.103 0.003-1.090 0-1.981-0.849-2.049-1.923l-0-0.006c0.067-1.079 0.959-1.928 2.049-1.928 0.036 0 0.073 0.001 0.108 0.003l1.921-0v-1.699s-0.285-2.266 3.059-2.266h2.325"></path>
<path fill="none" stroke="#fff" stroke-width="0.9063" stroke-miterlimit="10" stroke-linecap="butt" stroke-linejoin="miter" style="stroke: var(--color7, #fff)" d="M12.407 0.453h22.43c1.185 0.13 2.099 1.125 2.099 2.334 0 0.056-0.002 0.111-0.006 0.166l0 26.333s-0.394 2.266-2.66 2.266h-21.863"></path>
<path fill="none" stroke="#fff" stroke-width="0.9063" stroke-miterlimit="10" stroke-linecap="butt" stroke-linejoin="miter" style="stroke: var(--color7, #fff)" d="M9.914 31.551h-3.231s-2.152-0.227-2.152-1.926v-2.379h-1.926c-0.031 0.002-0.067 0.003-0.103 0.003-1.090 0-1.981-0.849-2.049-1.923l-0-0.006c0.067-1.079 0.959-1.928 2.049-1.928 0.036 0 0.073 0.001 0.108 0.003l1.921-0v-2.325h-1.926c-0.031 0.002-0.067 0.003-0.103 0.003-1.090 0-1.981-0.849-2.049-1.923l-0-0.006c0.067-1.079 0.959-1.928 2.049-1.928 0.036 0 0.073 0.001 0.108 0.003l1.921-0"></path>
<path fill="none" stroke="#fff" stroke-width="0.9063" stroke-miterlimit="10" stroke-linecap="butt" stroke-linejoin="miter" style="stroke: var(--color7, #fff)" d="M30.147 16c0 5.263-4.266 9.529-9.529 9.529s-9.529-4.266-9.529-9.529c0-5.263 4.266-9.529 9.529-9.529s9.529 4.266 9.529 9.529z"></path>
<path fill="none" stroke="#fff" stroke-width="1.3594" stroke-miterlimit="10" stroke-linecap="round" stroke-linejoin="miter" style="stroke: var(--color7, #fff)" d="M17.219 16.598l2.519-2.152s0.979-0.807 1.785 0-0.254 1.899-0.254 1.899l-2.605 2.551s-0.734 0.766 0.199 1.699 3.485-1.414 3.965-1.899"></path>
<path fill="#fff" style="fill: var(--color7, #fff)" d="M23.354 11.242c0 0.666-0.54 1.205-1.205 1.205s-1.205-0.54-1.205-1.205c0-0.666 0.54-1.205 1.205-1.205s1.205 0.54 1.205 1.205z"></path>
</symbol>
<symbol id="icon-document" viewBox="0 0 25 32">
<title>document</title>
<path fill="#fff" style="fill: var(--color7, #fff)" d="M20.733 32h-16.111c-2.552-0.003-4.62-2.070-4.622-4.622v-22.756c0.003-2.552 2.070-4.62 4.622-4.622h12.864l7.851 7.492v19.886c-0.003 2.546-2.060 4.61-4.603 4.622zM4.622 1.22c-1.876 0.003-3.395 1.522-3.398 3.398v22.76c0.003 1.876 1.522 3.395 3.398 3.398h16.111c1.876-0.003 3.395-1.522 3.398-3.398v-19.363l-7.097-6.791z"></path>
<path fill="#fff" style="fill: var(--color7, #fff)" d="M24.743 8.517h-3.251c-2.509-0.013-4.538-2.049-4.538-4.56 0-0.006 0-0.013 0-0.019v-3.548h1.233v3.549c-0 0.004-0 0.009-0 0.013 0 1.837 1.483 3.328 3.317 3.34h3.253z"></path>
<path fill="#fff" style="fill: var(--color7, #fff)" d="M5.039 11.378h15.654v1.526h-15.654v-1.526z"></path>
<path fill="#fff" style="fill: var(--color7, #fff)" d="M5.039 13.862h15.654v1.526h-15.654v-1.526z"></path>
<path fill="#fff" style="fill: var(--color7, #fff)" d="M5.039 16.954h15.654v1.526h-15.654v-1.526z"></path>
<path fill="#fff" style="fill: var(--color7, #fff)" d="M5.039 20.045h15.654v1.526h-15.654v-1.526z"></path>
<path fill="#fff" style="fill: var(--color7, #fff)" d="M5.039 23.142h11.875v1.526h-11.875v-1.526z"></path>
</symbol>
<symbol id="icon-special-sessions" viewBox="0 0 34 32">
<title>special-sessions</title>
<path fill="none" stroke="#fff" stroke-width="0.9165" stroke-miterlimit="10" stroke-linecap="butt" stroke-linejoin="miter" style="stroke: var(--color7, #fff)" d="M0.458 2.442h32.994v29.099h-32.994v-29.099z"></path>
<path fill="#fff" style="fill: var(--color7, #fff)" d="M4.124 0h1.755v5.806h-1.755v-5.806z"></path>
<path fill="#fff" style="fill: var(--color7, #fff)" d="M12.258 0h1.755v5.806h-1.755v-5.806z"></path>
<path fill="#fff" style="fill: var(--color7, #fff)" d="M19.934 0h1.755v5.806h-1.755v-5.806z"></path>
<path fill="#fff" style="fill: var(--color7, #fff)" d="M28.068 0h1.755v5.806h-1.755v-5.806z"></path>
<path fill="none" stroke="#fff" stroke-width="1.3748" stroke-miterlimit="10" stroke-linecap="butt" stroke-linejoin="miter" style="stroke: var(--color7, #fff)" d="M17.377 26.542l-2.204-5.792-6.186 0.307 4.825-3.886-2.2-5.788 5.183 3.386 4.825-3.881-1.622 5.98 5.187 3.386-6.191 0.307-1.618 5.98z"></path>
</symbol>
<symbol id="icon-roundtables" viewBox="0 0 43 32">
<title>roundtables</title>
<path fill="#fff" style="fill: var(--color7, #fff)" d="M7.275 32c-0.076-0.225 5.7-21.293 5.7-21.293h17.32l5.696 21.293z"></path>
<path fill="#fff" style="fill: var(--color7, #fff)" d="M6.451 28.774c0 1.781-1.444 3.226-3.226 3.226s-3.226-1.444-3.226-3.226c0-1.781 1.444-3.226 3.226-3.226s3.226 1.444 3.226 3.226z"></path>
<path fill="#fff" style="fill: var(--color7, #fff)" d="M43.342 28.774c0 1.781-1.444 3.226-3.226 3.226s-3.226-1.444-3.226-3.226c0-1.781 1.444-3.226 3.226-3.226s3.226 1.444 3.226 3.226z"></path>
<path fill="#fff" style="fill: var(--color7, #fff)" d="M8.133 20.319c0.406 1.391-0.393 2.847-1.784 3.252s-2.847-0.393-3.252-1.784c-0.406-1.391 0.393-2.847 1.784-3.252s2.847 0.393 3.252 1.784z"></path>
<path fill="#fff" style="fill: var(--color7, #fff)" d="M40.111 21.050c0 1.449-1.174 2.623-2.623 2.623s-2.623-1.174-2.623-2.623c0-1.449 1.174-2.623 2.623-2.623s2.623 1.174 2.623 2.623z"></path>
<path fill="#fff" style="fill: var(--color7, #fff)" d="M10.347 14.527c0 1.16-0.941 2.101-2.101 2.101s-2.101-0.941-2.101-2.101c0-1.16 0.941-2.101 2.101-2.101s2.101 0.941 2.101 2.101z"></path>
<path fill="#fff" style="fill: var(--color7, #fff)" d="M24.159 1.818c0 1.004-0.814 1.818-1.818 1.818s-1.818-0.814-1.818-1.818c0-1.004 0.814-1.818 1.818-1.818s1.818 0.814 1.818 1.818z"></path>
<path fill="#fff" style="fill: var(--color7, #fff)" d="M37.043 14.527c0 1.16-0.941 2.101-2.101 2.101s-2.101-0.941-2.101-2.101c0-1.16 0.941-2.101 2.101-2.101s2.101 0.941 2.101 2.101z"></path>
<path fill="#fff" style="fill: var(--color7, #fff)" d="M19.871 10.703l-0.675-4.535s-0.504-2.249 2.87-2.249c4.274 0 3.374 2.083 3.374 2.083l-0.958 5.003z"></path>
</symbol>
<symbol id="icon-invest" viewBox="0 0 31 32">
<title>invest</title>
<path fill="#fff" style="fill: var(--color7, #fff)" d="M6.658 17.658c0.027-0.037 0.045-0.082 0.052-0.131-0.008 0.049-0.026 0.093-0.053 0.132z"></path>
<path fill="#fff" style="fill: var(--color7, #fff)" d="M7.394 12.123l0.411-0.519c-0.669 0.225-1.242 0.485-1.784 0.795z"></path>
<path fill="#fff" style="fill: var(--color7, #fff)" d="M9.811 24.343c-0.037-0.208-0.215-0.365-0.43-0.367-0.005-0-0.011-0-0.017-0-0.211 0-0.386 0.149-0.427 0.348l-0.243 1.148c-0.006 0.027-0.009 0.059-0.009 0.091 0 0.245 0.198 0.444 0.442 0.447 0.066-0.001 0.129-0.017 0.185-0.043l0.405-0.181c0.156-0.071 0.263-0.226 0.263-0.406 0-0.026-0.002-0.052-0.007-0.077z"></path>
<path fill="#fff" style="fill: var(--color7, #fff)" d="M31.142 5.929l-5.996-5.797c-0.086-0.082-0.203-0.132-0.332-0.132-0.001 0-0.001 0-0.002 0h-8.377c-0.153 0.001-0.289 0.072-0.377 0.184l-4.415 5.707h-0.215c-2.072 0.002-3.752 1.68-3.755 3.752 0.001 0.326 0.042 0.642 0.119 0.943-4.55 1.366-7.797 5.524-7.797 10.44 0 6.034 4.892 10.926 10.926 10.926s10.926-4.892 10.926-10.926c0-4.58-2.818-8.501-6.814-10.126 0.040-0.336 0.114-0.694 0.131-1.067l4.754-0.008c1.211 1.389 2.984 2.262 4.961 2.262 0.002 0 0.004 0 0.006 0 1.077-0.051 2.081-0.316 2.987-0.751 1.333-0.645 3.080-2.055 3.414-4.999 0.002-0.016 0.003-0.035 0.003-0.055 0-0.136-0.056-0.258-0.146-0.345zM17.788 3.863h3.126c0.61 0 1.104 0.494 1.104 1.104s-0.494 1.104-1.104 1.104l-0.808-0.014h-4.039zM2.916 15.203h0.028l1.035-0.381c0.171-0.066 0.29-0.229 0.29-0.421 0-0.067-0.014-0.13-0.040-0.187l-0.153-0.334c0.521-0.5 1.1-0.946 1.724-1.327 0.018 0.012-0 0.057-0.008 0.105l-0.138 0.918c-0.002 0.015-0.004 0.032-0.004 0.049 0 0.080 0.030 0.153 0.079 0.208l0.027 0.027-2.395 1.506c-0.089 0.057-0.148 0.155-0.148 0.267 0 0.018 0.002 0.035 0.004 0.053l0.094 0.627-1.076 0.828c-0.083 0.058-0.136 0.152-0.136 0.259 0 0.132 0.082 0.246 0.197 0.292l0.83 0.359-0.552-0.030c-0.008-0.001-0.017-0.001-0.026-0.001-0.101 0-0.192 0.048-0.25 0.122l-1.195 1.579c0.235-1.721 0.881-3.259 1.835-4.555zM11.423 13.393c0.698-0 1.351-0.192 1.91-0.525 0.346 0.109 0.641 0.208 0.928 0.323 0.020 0.012 0.076 0.090 0.076 0.181 0 0.001 0 0.002-0 0.003v0.957c-0 0.077-0.039 0.144-0.099 0.184-0.034 0.021-0.075 0.034-0.118 0.034-0.002 0-0.003 0-0.005-0-0.032-0-0.062-0.007-0.089-0.020-0.86-0.399-1.869-0.631-2.932-0.631-0.895 0-1.751 0.165-2.54 0.466 0.027-0.008 0.001-0.003-0.026-0.003-0.12 0-0.218-0.098-0.218-0.218 0-0.001 0-0.001 0-0.002v-0.949c0-0.001 0-0.001 0-0.002 0-0.097 0.063-0.179 0.15-0.207 0.229-0.079 0.521-0.158 0.819-0.22 0.638 0.39 1.362 0.628 2.141 0.628zM6.71 17.529c-0.007 0.050-0.026 0.095-0.053 0.133 0.027-0.038 0.045-0.083 0.053-0.131zM3.565 17.934l0.64-0.935 0.828 0.552c0.048 0.032 0.107 0.052 0.171 0.052h0c0.174-0.002 0.315-0.143 0.315-0.317 0 0 0 0 0 0s0-0 0-0.001c0-0.044-0.009-0.085-0.026-0.123l0.001-0.031c0.739 0.67 0.784 0.67 0.902 0.67 0.002 0 0.003 0 0.005 0 0.034 0 0.066-0.006 0.096-0.017l0.031 0.001c0.232 0 0.742 0.036 1.084 0.063l-0.036 0.215-0.392 0.19-3.752-0.207c0.054-0.024 0.098-0.062 0.129-0.109zM7.394 12.123l-1.316 0.248c0.491-0.283 1.061-0.543 1.658-0.746zM11.417 12.43c-1.544 0-2.795-1.251-2.795-2.795s1.251-2.795 2.795-2.795c0.003 0 0.007-0 0.011-0 0.774 0 1.474 0.317 1.978 0.827-0.284 0.473-0.452 1.043-0.452 1.653 0 0.001 0 0.002 0 0.003 0 0.265 0.215 0.48 0.48 0.48h0.773c-0.098 1.463-1.308 2.613-2.786 2.616zM14.179 30.422l-2.268-0.687c-0.012-0.002-0.025-0.003-0.039-0.003s-0.027 0.001-0.040 0.003l-2.040-0.080c-0.015-0.003-0.032-0.005-0.050-0.005s-0.035 0.002-0.051 0.005-0.647 0.185-1.284 0.383c-0.419 0.132-0.723 0.232-0.944 0.317-3.799-1.459-6.447-5.076-6.451-9.312 0-0.312 0.017-0.618 0.044-0.922l1.076 2.042c0.054 0.101 0.158 0.169 0.279 0.169 0.058 0 0.112-0.016 0.159-0.043s0.274-0.154 0.55-0.314c0.16-0.094 0.276-0.171 0.378-0.232v0c0.177 0.121 0.466 0.326 0.748 0.527l0.574 1.931 0.395 2.892c0.016 0.121 0.099 0.219 0.21 0.256l1.252 0.417c0.030 0.010 0.065 0.017 0.101 0.019 0.044-0 0.085-0.009 0.122-0.026l0.197-0.079c0.054-0.021 0.098-0.055 0.132-0.099l1.071-1.38c0.025-0.033 0.044-0.072 0.055-0.114l0.676-2.593 1.38-1.595c0.049-0.055 0.079-0.128 0.079-0.209 0-0.024-0.003-0.047-0.008-0.070-0.021-0.096-0.086-0.176-0.172-0.218l-0.587-0.277 1.341-0.775c0.075-0.044 0.129-0.116 0.149-0.202 0.005-0.022 0.007-0.046 0.007-0.070 0-0.069-0.021-0.132-0.057-0.185l-0.65-0.912 1.421 0.328 1.476 2.354c0.056 0.090 0.154 0.149 0.266 0.149 0.014 0 0.028-0.001 0.042-0.003 0.121-0.016 0.22-0.1 0.257-0.213l0.45-1.382 0.599-0.552 0.828 0.618 0.168 1.236c0.008 0.052 0.028 0.099 0.056 0.139l0.593 0.827 0.29 1.269c0.037 0.142 0.164 0.245 0.314 0.246 0.173-0.003 0.312-0.144 0.312-0.317 0-0 0-0 0-0 0.001-0.010 0.002-0.021 0.002-0.033s-0.001-0.023-0.002-0.034l-0.301-3.337c1.846-1.672 1.843-1.678 1.752-1.909-0.010-0.030-0.024-0.055-0.042-0.078-0.085-0.19-0.391-1.103-0.673-1.991l0.022-0.030 0.886 0.778c0.055 0.049 0.129 0.079 0.209 0.079 0.048 0 0.094-0.011 0.135-0.030l0.384-0.181c0.564 1.21 0.894 2.628 0.894 4.122 0 4.32-2.752 7.997-6.599 9.373zM24.879 11.119c-0.002 0-0.005 0-0.007 0-1.707 0-3.236-0.764-4.263-1.968-0.085-0.172-0.25-0.284-0.441-0.284-0.001 0-0.003 0-0.004 0h-6.199c0.145-0.665 0.556-1.213 1.114-1.536 0.341-0.2 0.737-0.315 1.16-0.315 0.003 0 0.007 0 0.010 0h3.862l0.808 0.017c1.138 0 2.061-0.923 2.061-2.061s-0.923-2.061-2.061-2.061h-3.407c-0.207 0-0.383 0.134-0.446 0.32l-2.617 3.336c-0 0.003-0 0.007-0 0.011s0 0.008 0.001 0.012c-0.158 0.105-0.296 0.215-0.424 0.335-0.367-0.358-0.81-0.64-1.302-0.821l3.947-5.146h7.946l5.684 5.493c-0.668 4.553-5.242 4.663-5.422 4.666z"></path>
<path fill="#fff" style="fill: var(--color7, #fff)" d="M13.219 9.933c-0.063-0.031-0.137-0.049-0.216-0.049-0.196 0-0.366 0.113-0.448 0.278-0.148 0.304-0.402 0.533-0.713 0.643-0.209 0.070-0.351 0.256-0.351 0.475 0 0.274 0.222 0.497 0.497 0.497 0.003 0 0.006-0 0.008-0 0.001 0 0.003 0 0.004 0 0.057 0 0.111-0.010 0.161-0.029 0.569-0.201 1.025-0.611 1.282-1.136 0.036-0.076 0.054-0.15 0.054-0.228 0-0.196-0.113-0.366-0.277-0.449z"></path>
<path fill="#fff" style="fill: var(--color7, #fff)" d="M9.615 9.306c0.062 0.031 0.136 0.050 0.214 0.050 0.001 0 0.003 0 0.004-0s0.003 0 0.005 0c0.193 0 0.36-0.111 0.44-0.273 0.209-0.428 0.639-0.716 1.135-0.716 0.034 0 0.068 0.001 0.101 0.004-0.004-0-0.004-0-0.004-0 0.276 0 0.499-0.224 0.499-0.499 0-0.25-0.183-0.457-0.423-0.494-0.057-0.005-0.12-0.008-0.184-0.008-0.888 0-1.656 0.515-2.020 1.263-0.037 0.077-0.056 0.151-0.056 0.23 0 0.196 0.114 0.366 0.279 0.446z"></path>
</symbol>
<symbol id="icon-peace" viewBox="0 0 39 32">
<title>peace</title>
<path fill="#fff" style="fill: var(--color7, #fff)" d="M38.393 16.822l-2.792-4.049c-1.041-1.303-2.512-2.224-4.195-2.549l-4.172-0.764c-0.025-0.005-0.055-0.008-0.085-0.008-0.101 0-0.194 0.031-0.271 0.084l-1.44 1.001-1.435-0.999c-0.075-0.052-0.168-0.084-0.268-0.084-0.030 0-0.060 0.003-0.089 0.008l-3.879 0.714c0.181-0.736 0.465-1.384 0.842-1.966l0.221-0.338 0.048-0.085c0.26-0.29 0.567-0.531 0.909-0.715 0.018 0.327-0.003 0.676-0.037 1.045-0.001 0.011-0.002 0.025-0.002 0.038 0 0.194 0.148 0.353 0.337 0.371l0.038 0c0 0 0.001 0 0.001 0 0.196 0 0.356-0.15 0.374-0.341 0.036-0.368 0.056-0.795 0.056-1.226 0-0.078-0.001-0.157-0.002-0.235 0.1-0.022 0.203-0.052 0.303-0.082 0.204-0.054 0.351-0.237 0.351-0.454s-0.148-0.4-0.348-0.454l-0.376-0.104c-0.104-1.116-0.379-2.143-0.8-3.091-0.035-0.070-0.166-0.162-0.319-0.162-0.207 0-0.376 0.168-0.376 0.376 0 0.055 0.012 0.107 0.033 0.154 0.326 0.732 0.565 1.585 0.673 2.477l-1.286-0.308c-0.096-0.085-0.202-0.165-0.314-0.236l-0.755-0.463c-0.329-0.205-0.729-0.326-1.157-0.326-0.783 0-1.472 0.406-1.866 1.020l-1.91 2.398-0.303-0.566c-1.145-2.077-1.726-4.942-1.729-4.972-0.043-0.219-0.233-0.382-0.461-0.382-0.073 0-0.143 0.017-0.205 0.047-1.707 0.905-2.98 2.441-3.519 4.291-0.279-0.068-0.533-0.183-0.782-0.298-2.028-0.988-3.74-2.318-5.131-3.934-0.104-0.13-0.237-0.2-0.386-0.2-0.177 0-0.331 0.098-0.411 0.243-0.041 0.072-3.865 7.27 3.172 12.848 0.010 0.009 0.021 0.017 0.033 0.024l0.343 0.231-4.679 1.248c-0.203 0.055-0.351 0.237-0.351 0.454 0 0.095 0.028 0.183 0.076 0.256 0.059 0.092 1.537 2.357 4.32 2.357 0.151 0 0.303 0 0.463-0.021 0.040-0.002 0.077-0.008 0.112-0.019l3.186-1.095c1.021 0.514 2.217 0.843 3.482 0.908 0.022 0.064 0 0.122-0.006 0.167-0.003 0.024-0.005 0.052-0.005 0.080s0.002 0.056 0.006 0.083l-0 0.027c-0.006 0.094-0.010 0.203-0.010 0.313 0 1.654 0.825 3.116 2.087 3.995l0.276 0.18c-0.209 0.299-0.334 0.67-0.334 1.070 0 1.039 0.842 1.881 1.881 1.881 0.404 0 0.779-0.128 1.085-0.345l0.364-0.25c0.058 0.987 0.872 1.765 1.868 1.765 0.272 0 0.53-0.058 0.763-0.162-0.005 0.39 0.117 0.744 0.322 1.037 0.298 0.43 0.769 0.73 1.313 0.799-0.048 0.172-0.080 0.369-0.080 0.574 0 1.037 0.841 1.878 1.878 1.878 0.398 0 0.767-0.124 1.071-0.335l2.574-1.777c0.164-0.113 0.304-0.246 0.421-0.398l0.709 0.507c0.295 0.207 0.661 0.33 1.056 0.33 0.003 0 0.005 0 0.008 0 0 0 0.001 0 0.001 0 0.641 0 1.208-0.318 1.551-0.806 0.182-0.261 0.297-0.572 0.322-0.908 0.233 0.105 0.506 0.17 0.794 0.17 1.025 0 1.858-0.822 1.874-1.843 0.219 0.099 0.475 0.157 0.744 0.159 1.024-0.003 1.855-0.819 1.884-1.836 0.217 0.093 0.471 0.148 0.737 0.148 1.035 0 1.874-0.839 1.874-1.875 0-0.418-0.137-0.804-0.368-1.116 0.593-0.782 0.947-1.775 0.947-2.851 0-1.019-0.318-1.964-0.86-2.741zM18.56 5.636c0.334 0 0.606 0.271 0.606 0.606s-0.271 0.606-0.606 0.606c-0.334 0-0.606-0.271-0.606-0.606s0.271-0.606 0.606-0.606zM11.368 17.7c-0.171-0.040-0.296-0.191-0.296-0.371 0-0.21 0.17-0.381 0.381-0.381 0.030 0 0.059 0.003 0.087 0.010 0.281 0.050 0.607 0.078 0.941 0.078 0.691 0 1.354-0.123 1.967-0.349l0.003-0.012c0.025-0.010 0.053-0.018 0.084-0.021 1.126-0.359 2.027-1.141 2.534-2.156 0.073-0.152 0.201-0.238 0.35-0.238 0.060 0 0.116 0.014 0.166 0.039 0.125 0.062 0.21 0.191 0.21 0.339 0 0.059-0.014 0.115-0.038 0.165-0.604 1.212-1.655 2.129-2.931 2.544l-0.069 0.028c-0.017 0.012-0.037 0.022-0.059 0.030-0.666 0.25-1.434 0.394-2.235 0.394-0.003 0-0.005 0-0.008 0-0.019 0-0.041 0-0.064 0-0.362 0-0.715-0.037-1.057-0.106zM16.077 25.574c-0.15 0.099-0.334 0.159-0.531 0.159-0.32 0-0.605-0.156-0.781-0.395-0.104-0.152-0.165-0.337-0.165-0.536 0-0.001 0-0.002 0-0.003s0-0 0-0.001c0-0.319 0.159-0.6 0.403-0.769l4.097-2.83c0.149-0.105 0.334-0.167 0.534-0.167 0.319 0 0.601 0.16 0.77 0.403 0.106 0.153 0.168 0.338 0.168 0.538 0 0.32-0.159 0.603-0.403 0.774zM19.381 26.761c-0.148 0.097-0.33 0.155-0.526 0.155-0.32 0-0.604-0.155-0.781-0.395-0.105-0.152-0.167-0.336-0.168-0.535 0-0.001 0-0.001 0-0.001 0-0.319 0.159-0.6 0.403-0.769l4.1-2.83c0.148-0.104 0.332-0.166 0.53-0.167 0.519 0.002 0.938 0.423 0.938 0.942 0 0.313-0.152 0.59-0.387 0.761zM20.695 28.203c-0.106-0.147-0.17-0.33-0.17-0.529 0-0 0-0.001 0-0.001 0.001-0.32 0.16-0.602 0.403-0.773l4.097-2.827c0.149-0.104 0.335-0.167 0.535-0.167 0.519 0 0.94 0.421 0.94 0.94 0 0.32-0.159 0.602-0.403 0.772l-4.088 2.827c-0.148 0.1-0.331 0.159-0.528 0.159-0.32 0-0.603-0.157-0.776-0.399zM26.501 28.654c-0.065 0.191-0.185 0.349-0.342 0.458l-2.583 1.777c-0.149 0.099-0.331 0.158-0.527 0.158-0.319 0-0.601-0.155-0.776-0.394-0.104-0.15-0.165-0.332-0.165-0.529 0-0.001 0-0.002 0-0.003 0.002-0.322 0.163-0.605 0.409-0.776l2.571-1.786c0.149-0.104 0.333-0.166 0.532-0.166 0.32 0 0.602 0.16 0.771 0.405 0.107 0.149 0.169 0.331 0.169 0.528 0 0.115-0.021 0.225-0.060 0.326zM29.662 28.947c-0.178 0.244-0.462 0.4-0.783 0.4-0.199 0-0.384-0.060-0.538-0.163l-0.872-0.585c0.014-0.085 0.022-0.184 0.022-0.284 0-0.392-0.121-0.755-0.329-1.054-0.2-0.287-0.479-0.516-0.804-0.655l0.291-0.214c0.164-0.113 0.304-0.246 0.421-0.398l2.365 1.655c0.248 0.171 0.408 0.453 0.408 0.773 0 0.199-0.062 0.384-0.168 0.535zM37.551 24.020c-0.172 0.248-0.455 0.408-0.776 0.408-0.207 0-0.398-0.067-0.553-0.18l-0.96-0.604-0.018-0.015-6.172-4.173c-0.068-0.039-0.149-0.063-0.235-0.063-0.261 0-0.472 0.212-0.472 0.472 0 0.15 0.070 0.284 0.18 0.371l5.924 4.016c0.013 0.015 0.026 0.029 0.039 0.042l0.197 0.124c0.188 0.173 0.305 0.419 0.305 0.693 0 0.52-0.422 0.942-0.942 0.942-0.17 0-0.329-0.045-0.467-0.124l-1.067-0.685c-0.011-0.006-0.024-0.011-0.038-0.015l-5.277-3.634c-0.077-0.057-0.174-0.092-0.279-0.092-0.259 0-0.469 0.21-0.469 0.469 0 0.165 0.085 0.31 0.213 0.394l5.398 3.714c0.249 0.171 0.409 0.455 0.409 0.775 0 0.518-0.42 0.939-0.939 0.939-0.001 0-0.003 0-0.004 0-0.004 0-0.008 0-0.012 0-0.191 0-0.368-0.059-0.514-0.16l-1.136-0.828c-0.015 0-0.033 0-0.048-0.024l-2.404-1.681c0.011-0.077 0.018-0.167 0.018-0.257 0-1.039-0.841-1.882-1.88-1.884-0.269 0.001-0.524 0.059-0.754 0.162-0.009-1.024-0.84-1.843-1.862-1.843-0.002 0-0.005 0-0.007 0s-0.003 0-0.006 0c-0.397 0-0.764 0.125-1.066 0.337l-0.376 0.253c-0.055-0.989-0.871-1.771-1.869-1.771-0.4 0-0.771 0.125-1.075 0.339l-3.834 2.646-0.46-0.303c-1.025-0.714-1.687-1.887-1.687-3.215 0-0.111 0.005-0.221 0.014-0.33 0.002-0.005 0.003-0.028 0.003-0.051s-0.002-0.046-0.005-0.068l0 0.003c0-0.079 0.027-0.157 0.042-0.233h0.094c3.788-0.039 6.844-3.119 6.844-6.913 0-0.005 0-0.011-0-0.016v-0.423c0-0.118 0-0.239 0.021-0.36h0.039c0.023-0.007 0.044-0.015 0.063-0.025l3.935-0.72 0.984 0.681-4 2.753c-0.068 0.053-0.123 0.12-0.162 0.197-0.032 0.064-0.049 0.136-0.049 0.211 0 0.097 0.029 0.188 0.079 0.263 0.684 0.981 1.809 1.617 3.082 1.617 0.799 0 1.539-0.25 2.147-0.676l0.551-0.395 0.303 0.206c0.236 0.231 0.511 0.423 0.815 0.565l9.999 6.906c0.205 0.173 0.334 0.43 0.334 0.717 0 0.2-0.063 0.385-0.169 0.537zM37.593 21.761l-7.97-5.487c0.699-0.038 1.35-0.2 1.946-0.465 0.131-0.061 0.245-0.225 0.245-0.416 0-0.259-0.21-0.47-0.47-0.47-0.069 0-0.134 0.015-0.192 0.041-0.511 0.238-1.114 0.377-1.748 0.377-0.555 0-1.086-0.107-1.572-0.301l-0.659-0.465c-0.108-0.11-0.198-0.24-0.263-0.382-0.064-0.124-0.165-0.212-0.288-0.253-0.050-0.017-0.104-0.026-0.159-0.026-0.084 0-0.162 0.020-0.232 0.056l-0.064 0.038-1.002 0.718c-0.446 0.312-0.999 0.498-1.596 0.498-0.791 0-1.506-0.328-2.016-0.855l5.702-3.947 3.937 0.721c1.474 0.291 2.73 1.068 3.625 2.155l2.801 4.059c0.429 0.612 0.685 1.372 0.685 2.192 0 0.833-0.265 1.605-0.715 2.234z"></path>
<path fill="#fff" style="fill: var(--color7, #fff)" d="M19.581 4.040c0.232 0.165 0.521 0.264 0.833 0.264 0.249 0 0.484-0.063 0.689-0.174-0.003-0.040-0-0.092-0-0.144 0-0.511-0.266-0.96-0.668-1.215-0.237-0.17-0.526-0.27-0.838-0.27-0.25 0-0.485 0.064-0.689 0.176 0.003 0.040-0 0.092-0 0.144 0 0.511 0.266 0.96 0.668 1.215z"></path>
<path fill="#fff" style="fill: var(--color7, #fff)" d="M22.319 4.125c0.138 0.048 0.298 0.077 0.464 0.077 0.397 0 0.756-0.16 1.017-0.419 0.295-0.265 0.48-0.648 0.48-1.074 0-0.137-0.019-0.27-0.055-0.396-0.135-0.038-0.294-0.066-0.46-0.066-0.396 0-0.755 0.16-1.016 0.418-0.296 0.265-0.482 0.649-0.482 1.076 0 0.137 0.019 0.269 0.055 0.394z"></path>
<path fill="#fff" style="fill: var(--color7, #fff)" d="M23.015 1.514c0.080-0.174 0.127-0.378 0.127-0.592 0-0.352-0.126-0.674-0.335-0.924-0.552 0.052-1.010 0.41-1.206 0.901-0.084 0.184-0.131 0.387-0.131 0.602 0 0.352 0.126 0.674 0.335 0.924 0.551-0.054 1.009-0.411 1.206-0.901z"></path>
<path fill="#fff" style="fill: var(--color7, #fff)" d="M21.010 2.189c0.096-0.188 0.152-0.41 0.152-0.645 0-0.328-0.11-0.631-0.294-0.873-0.259-0.386-0.698-0.638-1.195-0.638-0.066 0-0.13 0.004-0.194 0.013-0.090 0.188-0.147 0.411-0.147 0.647 0 0.327 0.109 0.628 0.293 0.87 0.26 0.386 0.699 0.639 1.197 0.639 0.066 0 0.131-0.004 0.195-0.013z"></path>
</symbol>
</defs>
</svg>
