<svg xmlns="http://www.w3.org/2000/svg" viewBox="0 0 82.5 70.62"><defs><style>.cls-1,.cls-2{fill:none;stroke:#fff;stroke-miterlimit:10;}.cls-1{stroke-width:2px;}.cls-2{stroke-linecap:round;stroke-width:3px;}.cls-3{fill:#fff;}</style></defs><title>about-icon</title><g id="Layer_2" data-name="Layer 2"><g id="Camada_1" data-name="Camada 1"><path class="cls-1" d="M10,31.88H5.75A4.53,4.53,0,0,1,1,27.63H1a4.53,4.53,0,0,1,4.75-4.25H10V18.25H5.75A4.53,4.53,0,0,1,1,14H1A4.53,4.53,0,0,1,5.75,9.75H10V6s-.63-5,6.75-5h5.13"/><path class="cls-1" d="M10,19.25"/><path class="cls-1" d="M68.25,14.5"/><path class="cls-1" d="M27.38,1h49.5A5.18,5.18,0,0,1,81.5,6.5V64.63s-.87,5-5.87,5H27.38"/><path class="cls-1" d="M21.88,69.63H14.75S10,69.13,10,65.38V60.13H5.75A4.53,4.53,0,0,1,1,55.88H1a4.53,4.53,0,0,1,4.75-4.25H10V46.5H5.75A4.53,4.53,0,0,1,1,42.25H1A4.53,4.53,0,0,1,5.75,38H10"/><circle class="cls-1" cx="45.5" cy="35.31" r="21.03"/><path class="cls-2" d="M38,36.63l5.56-4.75s2.16-1.78,3.94,0-.56,4.19-.56,4.19l-5.75,5.63s-1.62,1.69.44,3.75,7.69-3.12,8.75-4.19"/><circle class="cls-3" cx="48.88" cy="24.81" r="2.66"/></g></g></svg>