<svg xmlns="http://www.w3.org/2000/svg" viewBox="0 0 57.16 72.14"><defs><style>.cls-1{fill:#fff;}</style></defs><title>document-icon</title><g id="Layer_2" data-name="Layer 2"><g id="Camada_1" data-name="Camada 1"><path class="cls-1" d="M46.74,72.14H10.42A10.43,10.43,0,0,1,0,61.72V10.42A10.43,10.43,0,0,1,10.42,0h29l17.7,16.89V61.72A10.43,10.43,0,0,1,46.74,72.14ZM10.42,2.75a7.67,7.67,0,0,0-7.66,7.66V61.72a7.67,7.67,0,0,0,7.66,7.66H46.74a7.67,7.67,0,0,0,7.66-7.66V18.07l-16-15.31Z"/><path class="cls-1" d="M55.78,19.2H48.45A10.28,10.28,0,0,1,38.22,8.88v-8H41v8a7.53,7.53,0,0,0,7.48,7.56h7.33Z"/><rect class="cls-1" x="11.36" y="25.65" width="35.29" height="3.44"/><rect class="cls-1" x="11.36" y="31.25" width="35.29" height="3.44"/><rect class="cls-1" x="11.36" y="38.22" width="35.29" height="3.44"/><rect class="cls-1" x="11.36" y="45.19" width="35.29" height="3.44"/><rect class="cls-1" x="11.36" y="52.17" width="26.77" height="3.44"/></g></g></svg>