<svg xmlns="http://www.w3.org/2000/svg" viewBox="0 0 129.58 105.67"><defs><style>.cls-1{fill:#fff;}</style></defs><title>dove-icon</title><g id="Layer_2" data-name="Layer 2"><g id="Camada_1" data-name="Camada 1"><path class="cls-1" d="M126.78,55.55l-9.22-13.37a23.36,23.36,0,0,0-14-8.44l-13.63-2.5a1.58,1.58,0,0,0-1.17.25L84,34.8,79.26,31.5a1.56,1.56,0,0,0-1.17-.25L65.27,33.61A21.14,21.14,0,0,1,68,27.2L68.78,26l.16-.28A11,11,0,0,1,72,23.33c0,1.11-.07,2.26-.18,3.48a1.23,1.23,0,0,0,1.11,1.35h.12a1.24,1.24,0,0,0,1.24-1.13,44,44,0,0,0,.18-4.78c.33-.11.67-.21,1-.31a1.55,1.55,0,0,0,0-3l-1.23-.34a32.46,32.46,0,0,0-2.56-10,1.24,1.24,0,0,0-2.27,1,29.68,29.68,0,0,1,2.24,8.33l-4.26-1.16a8.24,8.24,0,0,0-1.07-.8l-2.46-1.51a7.32,7.32,0,0,0-10,2.32l-6.29,7.89-1-1.87c-3.78-6.86-5.7-16.32-5.71-16.42a1.55,1.55,0,0,0-2.19-1.11A23.38,23.38,0,0,0,27,19.61c-.88-.39-1.72-.77-2.54-1.15A52.08,52.08,0,0,1,7.46,5.4a1.55,1.55,0,0,0-2.58.22c-.13.23-12.76,24,10.48,42.42a.5.5,0,0,0,.11.08l1.13.76L1.15,53a1.55,1.55,0,0,0-.91,2.34c.2.31,5.08,7.79,14.27,7.79.5,0,1,0,1.53-.07A1.53,1.53,0,0,0,16.4,63l10.53-3.62a29.5,29.5,0,0,0,11.57,3c0,.21-.07.4-.09.55a2,2,0,0,0,0,.53l0,.1a16.07,16.07,0,0,0,6.91,14.26l.86.56A6.21,6.21,0,0,0,54.85,87l1.22-.84a6.18,6.18,0,0,0,8.65,5.31,6.13,6.13,0,0,0,1.09,3.39,6.22,6.22,0,0,0,4.38,2.66,6.2,6.2,0,0,0,9.42,7l8.52-5.88a6.07,6.07,0,0,0,1.4-1.33L91.86,99a6.12,6.12,0,0,0,3.51,1.09,6.26,6.26,0,0,0,5.14-2.68,6.06,6.06,0,0,0,1.05-3,6.19,6.19,0,0,0,8.81-5.51,6.12,6.12,0,0,0,2.46.53,6.24,6.24,0,0,0,6.22-6.07A6.19,6.19,0,0,0,126.47,74a15.83,15.83,0,0,0,.31-18.43M61.29,18.61a2,2,0,1,1-2,2,2,2,0,0,1,2-2M37.54,58.45A1.25,1.25,0,0,1,38.1,56a18.81,18.81,0,0,0,9.48-.85l.14-.08A1,1,0,0,1,48,55,14,14,0,0,0,56.4,47.8a1.24,1.24,0,0,1,1.66-.58,1.25,1.25,0,0,1,.58,1.66,16.45,16.45,0,0,1-9.8,8.44l-.11.06a.85.85,0,0,1-.2.1,21.57,21.57,0,0,1-7.4,1.3,17.38,17.38,0,0,1-3.59-.33m15.55,26a3.2,3.2,0,0,1-4.34-.79,3.14,3.14,0,0,1-.54-1.77,3.09,3.09,0,0,1,1.34-2.55L63.07,70a3.09,3.09,0,0,1,4.31.79,3.12,3.12,0,0,1-.79,4.33ZM64,88.37a3.2,3.2,0,0,1-4.32-.8,3.14,3.14,0,0,1-.55-1.76,3.09,3.09,0,0,1,1.34-2.55L74,73.92a3.07,3.07,0,0,1,1.75-.55A3.11,3.11,0,0,1,77.56,79Zm4.34,4.76a3,3,0,0,1-.56-1.75,3.13,3.13,0,0,1,1.34-2.56l13.52-9.33a3.1,3.1,0,1,1,3.53,5.11L72.68,93.93a3.15,3.15,0,0,1-4.31-.8m19.14,1.49a3,3,0,0,1-1.14,1.52L77.85,102a3.17,3.17,0,0,1-4.31-.79A3.07,3.07,0,0,1,73,99.46a3.14,3.14,0,0,1,1.36-2.57L82.84,91a3.09,3.09,0,0,1,4.31.8,3,3,0,0,1,.36,2.79m10.44,1a3.19,3.19,0,0,1-4.35.79l-2.89-1.94a6.12,6.12,0,0,0-1-4.4A6.22,6.22,0,0,0,87,87.84l1-.69a6.08,6.08,0,0,0,1.4-1.33l7.8,5.48a3.09,3.09,0,0,1,.8,4.31m26-16.29a3.11,3.11,0,0,1-4.38.76l-3.18-2-.06-.05L96,64.25a1.56,1.56,0,0,0-1.74,2.58l19.56,13.26a1.86,1.86,0,0,0,.13.14l.65.41h0a3.11,3.11,0,0,1-3.63,5l-3.54-2.27a.81.81,0,0,0-.13-.05l-17.42-12a1.55,1.55,0,1,0-1.76,2.55L105.75,86l.19.13a3.1,3.1,0,0,1-1.76,5.66,3,3,0,0,1-1.73-.52l-3.76-2.74c-.05,0-.11,0-.16-.08L90.59,82.9a6.22,6.22,0,0,0-6.15-7.07,6.16,6.16,0,0,0-2.45.52,6.19,6.19,0,0,0-6.21-6.07,6.12,6.12,0,0,0-3.52,1.1L71,72.23a6.18,6.18,0,0,0-9.7-4.74L48.62,76.24l-1.52-1a12.9,12.9,0,0,1-5.53-11.66,1.6,1.6,0,0,0,0-.43v0c0-.26.09-.52.14-.77h.11l.2,0A22.83,22.83,0,0,0,64.62,39.5l0-1.4c0-.39,0-.79.07-1.19l.13,0a1.23,1.23,0,0,0,.2-.08l13-2.38,3.25,2.25L68.06,45.79a1.91,1.91,0,0,0-.54.66A1.57,1.57,0,0,0,67.62,48a12.37,12.37,0,0,0,17.23,3.14l1.86-1.33,1,.68a9.65,9.65,0,0,0,2.75,1.89L123.23,75l.19.16a3.09,3.09,0,0,1,.55,4.13m.17-7.43L97.82,53.74a18.23,18.23,0,0,0,6.31-1.49,1.55,1.55,0,1,0-1.25-2.84A14,14,0,0,1,92,49.7l-2.27-1.57a4.43,4.43,0,0,1-.88-1.29,1.64,1.64,0,0,0-.95-.81,1.66,1.66,0,0,0-1.27.1l-.22.13-3.31,2.37a9.26,9.26,0,0,1-11.93-1.18L90,34.42l13,2.38a20.54,20.54,0,0,1,12,7.15l9.22,13.37a12.71,12.71,0,0,1-.07,14.58"/><path class="cls-1" d="M64.66,13.34a4.77,4.77,0,0,0,5,.31,4.75,4.75,0,0,0-2.2-4.51,4.74,4.74,0,0,0-5-.31,4.75,4.75,0,0,0,2.2,4.51"/><path class="cls-1" d="M73.7,13.62a4.77,4.77,0,0,0,4.89-1.13A4.76,4.76,0,0,0,80,7.67,4.76,4.76,0,0,0,75.12,8.8a4.76,4.76,0,0,0-1.42,4.82"/><path class="cls-1" d="M76,5a4.76,4.76,0,0,0-.68-5,4.74,4.74,0,0,0-4,3A4.76,4.76,0,0,0,72,8a4.76,4.76,0,0,0,4-3"/><path class="cls-1" d="M69.38,7.23a4.76,4.76,0,0,0-.46-5A4.75,4.75,0,0,0,64.35.15a4.74,4.74,0,0,0,.45,5,4.76,4.76,0,0,0,4.58,2.08"/></g></g></svg>