<svg xmlns="http://www.w3.org/2000/svg" viewBox="0 0 111.28 114.17"><defs><style>.cls-1{fill:#fff;}</style></defs><title>ending-need-icon</title><g id="Layer_2" data-name="Layer 2"><g id="Camada_1" data-name="Camada 1"><path class="cls-1" d="M110.33,59.29a8.83,8.83,0,0,0-3.77-.83,9,9,0,0,0-7.75,4.48,1.54,1.54,0,0,0-.32.47L90.77,79.91l-14,2.23L79.19,80a7.05,7.05,0,0,0,.67-9.89l-.43-.58A1.65,1.65,0,0,0,77,69.3L55.86,88.11,34.28,69.3a1.65,1.65,0,0,0-2.41.25l-.43.58A7,7,0,0,0,32.1,80l2.42,2.14-14-2.23L12.81,63.41a1.56,1.56,0,0,0-.32-.46A9,9,0,0,0,1,59.29a1.66,1.66,0,0,0-.8,2.19l2.93,6.45L12,87a5.34,5.34,0,0,0,3,2.76l23.77,10.88v11.85a1.65,1.65,0,0,0,1.65,1.66H70.89a1.66,1.66,0,0,0,1.66-1.66V100.66L96.31,89.77a5.3,5.3,0,0,0,3-2.76l8.91-19.11,2.92-6.44a1.66,1.66,0,0,0-.8-2.18M41.09,98.08,16.3,86.75l-.13-.05A2.07,2.07,0,0,1,15,85.63L6.08,66.55,3.94,61.83A5.67,5.67,0,0,1,9.85,65a1.58,1.58,0,0,0,.24.37l7.79,16.71a1.67,1.67,0,0,0,1.24.93l20.51,3.27A1.65,1.65,0,0,0,41,83.45l-6.69-5.91A3.72,3.72,0,0,1,33,75a3.78,3.78,0,0,1,.43-2L53.54,90.48c-2.3,2.87-6.43,9.49-6.73,20.38H42.06V99.6a1.67,1.67,0,0,0-1-1.51M105.2,66.52l-8.9,19.1a2.06,2.06,0,0,1-1.18,1.06l-.13.06L70.2,98.08a1.67,1.67,0,0,0-1,1.51v11.27H50.12c.4-13.27,7.09-19.52,7.15-19.58L77.83,73A3.74,3.74,0,0,1,77,77.52l-6.7,5.91a1.66,1.66,0,0,0,1.35,2.88L92.16,83a1.66,1.66,0,0,0,1.25-.93l7.79-16.7a1.66,1.66,0,0,0,.25-.38,5.67,5.67,0,0,1,5.12-3.26,5.4,5.4,0,0,1,.79.06Z"/><path class="cls-1" d="M31.89,48.53h1.87l2.33,15.22v0a2.41,2.41,0,0,0,2.3,2.29,2.47,2.47,0,0,0,2.27-2.29A2.39,2.39,0,0,0,43,66.06a2.06,2.06,0,0,0,1.67-.87L42.88,50.82a3.5,3.5,0,0,1-1.3-2.35,2.7,2.7,0,0,1,0-.36c-.15-2.19-.54-7.4-.65-9,0-.5-.06-.85-.06-1.27A6.83,6.83,0,0,1,47.68,31H48a6.83,6.83,0,0,1,6.83,6.82c0,.42,0,.77-.06,1.27-.11,1.65-.49,6.85-.64,9a3.17,3.17,0,0,1,0,.36,3.54,3.54,0,0,1-1.29,2.35L51.11,65.38a3.35,3.35,0,0,0,6.13-1.08h.08v-.08A3.58,3.58,0,0,0,60.84,67h.08A2,2,0,0,1,60,65.44v0L58.22,54.29H56.79a1.64,1.64,0,0,1-1.64-1.67l0-.28a.3.3,0,0,1,0-.11L59,33.72l.09-.39a4.48,4.48,0,0,1,4.34-3.39h.27a4.49,4.49,0,0,1,4.35,3.39l.08.39,1.12,5.43.42,2L72,52.24a.29.29,0,0,1,0,.11s0,.17,0,.28a1.65,1.65,0,0,1-1.65,1.67H68.85L67,65.35a.11.11,0,0,1,0,0,2.26,2.26,0,0,1-.83,1.5,3,3,0,0,0,.66.07,3.07,3.07,0,0,0,3.08-2.47H70v0A3.34,3.34,0,0,0,73.23,67a3.06,3.06,0,0,0,3.06-3L79,42.43a4.51,4.51,0,0,0,1.63-3,3.14,3.14,0,0,0,0-.46c.18-2.78.67-9.34.81-11.43,0-.64.09-1.07.09-1.61a8.64,8.64,0,0,0-8.64-8.63h-.42a8.59,8.59,0,0,0-6.07,2.51,9.29,9.29,0,0,0-8.85-6.47h-.45a9.28,9.28,0,0,0-9.28,9.2,3.74,3.74,0,1,1-.9.06l-.23-1.08-.1-.52A5.89,5.89,0,0,0,41,16.61H40.6A5.88,5.88,0,0,0,34.9,21l-.11.52-5,24.27a.66.66,0,0,0,0,.14s0,.23,0,.37a2.14,2.14,0,0,0,2.16,2.18m31.7-28.14a3.9,3.9,0,1,1-3.91,3.9,3.9,3.9,0,0,1,3.91-3.9"/><path class="cls-1" d="M57.15,10.15a5.07,5.07,0,1,0-5.07-5.07,5.07,5.07,0,0,0,5.07,5.07"/><path class="cls-1" d="M63.43,65.69s.06-.06.08-.1,0-.1,0-.15l-.06.25"/><path class="cls-1" d="M72.52,14.35a4.71,4.71,0,1,0-4.7-4.71,4.71,4.71,0,0,0,4.7,4.71"/><path class="cls-1" d="M40.78,14.33a5.52,5.52,0,1,0-5.53-5.52,5.53,5.53,0,0,0,5.53,5.52"/></g></g></svg>