<svg xmlns="http://www.w3.org/2000/svg" viewBox="0 0 113.4 115.98"><defs><style>.cls-1{fill:#fff;}</style></defs><title>invest-icon</title><g id="Layer_2" data-name="Layer 2"><g id="Camada_1" data-name="Camada 1"><path class="cls-1" d="M24.13,64a1.08,1.08,0,0,0,.19-.48,1.16,1.16,0,0,1-.19.48"/><path class="cls-1" d="M26.8,43.94l1.49-1.88A35.72,35.72,0,0,0,22,44.85Z"/><path class="cls-1" d="M35.56,88.23A1.6,1.6,0,0,0,34,86.9a1.58,1.58,0,0,0-1.61,1.27l-.88,4.15a1.62,1.62,0,0,0,1.57,1.95,1.68,1.68,0,0,0,.66-.15l1.48-.66a1.61,1.61,0,0,0,.93-1.74Z"/><path class="cls-1" d="M112.87,21.49,91.14.48A1.75,1.75,0,0,0,89.93,0H59.57A1.75,1.75,0,0,0,58.2.67l-16,20.68-.78,0a13.62,13.62,0,0,0-13.61,13.6,13.89,13.89,0,0,0,.41,3.32,39.6,39.6,0,1,0,26,1.14,13.11,13.11,0,0,0,.74-3.8H72.19a23.81,23.81,0,0,0,18,8.2,28,28,0,0,0,10.66-2.65c5-2.41,11.33-7.52,12.54-18.19a1.74,1.74,0,0,0-.52-1.45M64.47,14H75.8a4,4,0,0,1,0,8l-2.93-.05h-14l-.64,0Zm-53.9,41.1.1,0,3.75-1.38a1.63,1.63,0,0,0,.91-2.19l-.56-1.22a36.47,36.47,0,0,1,6.41-4.9,1.18,1.18,0,0,0-.19.48l-.5,3.32a1.14,1.14,0,0,0,.27.93l.1.1-8.68,5.46a1.14,1.14,0,0,0-.52,1.15L12,59.13l-3.9,3a1.14,1.14,0,0,0,.23,2l3,1.3-2-.11a1.15,1.15,0,0,0-1,.44L4,71.48a35.9,35.9,0,0,1,6.58-16.41m30.82-6.53a13.53,13.53,0,0,0,6.86-1.87,32,32,0,0,1,3.21,1.06.79.79,0,0,1,.49.74v3.47a.81.81,0,0,1-.36.67.81.81,0,0,1-.44.12.77.77,0,0,1-.32-.07A25.82,25.82,0,0,0,31.18,52a.79.79,0,0,1-1.06-.75V47.81a.79.79,0,0,1,.55-.76,29,29,0,0,1,3.15-.83,13.57,13.57,0,0,0,7.57,2.31m-17.07,15a1.08,1.08,0,0,1-.19.48,1.16,1.16,0,0,0,.19-.48M12.92,65l2.32-3.39,3,2a1.13,1.13,0,0,0,.62.19h0A1.15,1.15,0,0,0,20,62.65a1.11,1.11,0,0,0-.09-.44l0-.12c2.68,2.43,2.84,2.43,3.27,2.43a1,1,0,0,0,.36-.06h.12c.84,0,2.69.13,3.93.23l-.13.78-1.42.69-13.6-.75a1.08,1.08,0,0,0,.47-.4M26.8,43.94l-4.77.9a35.66,35.66,0,0,1,6.26-2.78Zm14.58,1.11a10.13,10.13,0,0,1,0-20.26,10.07,10.07,0,0,1,7.21,3,11.76,11.76,0,0,0-1.64,6,1.74,1.74,0,0,0,1.74,1.74h2.8a10.14,10.14,0,0,1-10.1,9.48m10,65.25-8.22-2.49a1,1,0,0,0-.28,0l-7.4-.29a1,1,0,0,0-.36,0s-2.35.67-4.66,1.39c-1.52.48-2.62.84-3.42,1.15A36.09,36.09,0,0,1,3.67,76.27c0-1.13.06-2.24.16-3.34l3.9,7.4a1.14,1.14,0,0,0,1.58.46s1-.56,2-1.14c.58-.34,1-.62,1.37-.84h0c.64.44,1.69,1.18,2.71,1.91l2.08,7L18.9,98.2a1.13,1.13,0,0,0,.77.93l4.53,1.51a1.39,1.39,0,0,0,.37.07,1.12,1.12,0,0,0,.43-.09l.72-.29a1.12,1.12,0,0,0,.48-.36l3.88-5a1.1,1.1,0,0,0,.2-.42l2.45-9.39,5-5.78a1.14,1.14,0,0,0,.26-1,1.16,1.16,0,0,0-.63-.8l-2.12-1,4.86-2.81a1.14,1.14,0,0,0,.54-.74,1.18,1.18,0,0,0-.18-.91l-2.36-3.31L43.25,70l5.35,8.53a1.13,1.13,0,0,0,1.11.53,1.14,1.14,0,0,0,.94-.78l1.63-5,2.17-2,3,2.24L58.06,78a1.2,1.2,0,0,0,.2.5l2.15,3,1.05,4.6a1.18,1.18,0,0,0,1.14.89,1.15,1.15,0,0,0,1.13-1.15,1,1,0,0,0,0-.24l-1.09-12.1c6.69-6.06,6.68-6.08,6.35-6.92a1,1,0,0,0-.15-.28c-.31-.69-1.42-4-2.44-7.22l.08-.11,3.21,2.82a1.14,1.14,0,0,0,1.24.18l1.4-.66A36.07,36.07,0,0,1,51.4,110.3m38.77-70a20.3,20.3,0,0,1-15.5-7.16,1.74,1.74,0,0,0-1.59-1H50.61a8.46,8.46,0,0,1,4.08-5.59,8.3,8.3,0,0,1,4.2-1.12h14l2.93.06a7.47,7.47,0,1,0,0-14.94H63.47a1.71,1.71,0,0,0-1.62,1.17L52.37,23.8a.46.46,0,0,0,0,.08,11.82,11.82,0,0,0-1.53,1.21,13.52,13.52,0,0,0-4.82-3L60.42,3.47h28.8l20.6,19.91c-2.42,16.5-19,16.9-19.65,16.91"/><path class="cls-1" d="M47.91,36a1.81,1.81,0,0,0-2.41.84,4.55,4.55,0,0,1-2.61,2.33,1.8,1.8,0,0,0,.59,3.51,1.69,1.69,0,0,0,.59-.1,8.16,8.16,0,0,0,4.68-4.17A1.82,1.82,0,0,0,47.91,36"/><path class="cls-1" d="M34.85,33.73a1.76,1.76,0,0,0,.79.18,1.78,1.78,0,0,0,1.62-1,4.56,4.56,0,0,1,4.46-2.57,1.81,1.81,0,0,0,.27-3.6,8.14,8.14,0,0,0-8,4.6,1.8,1.8,0,0,0,.84,2.41"/></g></g></svg>