<svg xmlns="http://www.w3.org/2000/svg" viewBox="0 0 124.78 113.24"><defs><style>.cls-1{fill:#fff;}</style></defs><title>leave-no-one-behing-icon</title><g id="Layer_2" data-name="Layer 2"><g id="Camada_1" data-name="Camada 1"><path class="cls-1" d="M110.33,64.36l5.94-6.56A32.77,32.77,0,0,0,114,11.51l-3.33-3A32.83,32.83,0,0,0,64.4,10.73L44.77,32.38,31.87,46.78A1.94,1.94,0,0,0,32,49.53a15.45,15.45,0,0,0,4.66,2.88L.5,92.31a1.94,1.94,0,0,0-.1,2.49c.56.72,13.79,17.52,32.69,18.41.48,0,1,0,1.43,0,16.42,0,29-13,31.08-15.27L92.92,84.89l5.67-2.46a2,2,0,0,0,1-1.1,1.92,1.92,0,0,0-.07-1.52,15.68,15.68,0,0,0-2.79-4.07,20,20,0,0,0,3.12-.26,2,2,0,0,0,.39-.1,14.15,14.15,0,0,0,8.82,2.92,16.49,16.49,0,0,0,6.16-1.18,2,2,0,0,0,.93-2.77ZM47.65,35,67.3,13.34a28.91,28.91,0,0,1,40.8-2l3.33,3a28.89,28.89,0,0,1,2,40.81l-5.12,5.65L94.8,37.9a1.9,1.9,0,0,0-1.72-1l-13.25.34a19,19,0,0,0,8.47-13.9,1.94,1.94,0,0,0-3.86-.47c-1.55,12.71-14.81,14.5-16.86,14.7l-3.94.1,2.18-2.43a1.94,1.94,0,0,0-2.88-2.61L51,45.75a11.59,11.59,0,0,1-14.8,2.07Zm8.26,27.43,9.37,16.25c-5.07,2-7.71-.5-8.22-1.08l-6.5-11.71a3.23,3.23,0,0,1,1.17-4.41,3.24,3.24,0,0,1,4.17,1M68.84,77.06,59.58,61c0-.07-.06-.15-.1-.23s-.18-.27-.27-.41l-2.81-4.86a3.23,3.23,0,0,1,1.19-4.41,3.18,3.18,0,0,1,2.49-.31,2.79,2.79,0,0,1,1.72,1.37l0,.07,9.11,15.84,3.7,6.35Zm9.35-4.22-3.88-6.69-5.07-8.8a2.54,2.54,0,0,0-.12-.27l-2.2-3.81a3.22,3.22,0,0,1,1.19-4.42,3.26,3.26,0,0,1,3-.13A3.21,3.21,0,0,1,72.54,50l4.3,7.48a8,8,0,0,0,.46,1l2.2,3.81a1.7,1.7,0,0,0,.34.43l1.73,3A16.3,16.3,0,0,0,85.16,71,15.29,15.29,0,0,0,79,72.47ZM80.34,54.1A3.26,3.26,0,0,1,84.85,52a3.31,3.31,0,0,1,1.43,1.33l3.56,6.2,6.68,11.55a2,2,0,0,0,.17.25l.34.53c-8.66.21-11.77-7.34-11.9-7.68a1.63,1.63,0,0,0-.13-.27l-4.63-8.05a3.24,3.24,0,0,1,0-1.77M99.92,69.16,99.83,69,93.2,57.58,89.64,51.4A7.1,7.1,0,0,0,77.56,51l-1.65-2.87a7.12,7.12,0,0,0-12.44.15,6.77,6.77,0,0,0-2.3-1.19,7.14,7.14,0,0,0-5.53.68,7.1,7.1,0,0,0-2.75,9.44,6.76,6.76,0,0,0-3.1.9,7.1,7.1,0,0,0-2.62,9.68l6.57,11.84a1.83,1.83,0,0,0,.16.25c1.6,2.08,6.45,5.21,13.36,2.17l13.37-6A11.58,11.58,0,0,1,95,79.74l-3.7,1.61-.06,0L63.58,94.63a1.93,1.93,0,0,0-.62.48c-.14.15-13.28,15-29.69,14.21C19,108.66,7.88,97.44,4.52,93.66L41,53.42a16.11,16.11,0,0,0,2.17,0,15.37,15.37,0,0,0,10.65-5.11L60,41.69l7.32-.19h.2l.44,0L92,40.85l14,23.91a1.92,1.92,0,0,0,.39.67l5.12,8.72c-3,.57-8.25.61-11.65-5"/></g></g></svg>