<svg xmlns="http://www.w3.org/2000/svg" viewBox="0 0 99.94 92.36"><defs><style>.cls-1{fill:none;stroke:#fff;stroke-miterlimit:10;stroke-width:3px;}</style></defs><title>public-icon</title><g id="Layer_2" data-name="Layer 2"><g id="Camada_1" data-name="Camada 1"><polygon class="cls-1" points="80 59.28 83.62 70.42 95.32 70.42 85.85 77.3 89.47 88.43 80 81.55 70.53 88.43 74.15 77.3 64.68 70.42 76.38 70.42 80 59.28"/><path class="cls-1" d="M58.5,87.5H1.5V71.25s1-24.93,30.71-24.93"/><path class="cls-1" d="M77.5,52.25s-8.12-6-16.87-6"/><path class="cls-1" d="M24.21,51.32"/><path class="cls-1" d="M53.81,51"/><path class="cls-1" d="M31.24,46.33C24.33,41.92,20.75,34.46,20.75,26c0-13.53,11.64-24.5,26-24.5s26,11,26,24.5A24.08,24.08,0,0,1,61.81,46"/></g></g></svg>