<svg xmlns="http://www.w3.org/2000/svg" viewBox="0 0 105.42 113.25"><defs><style>.cls-1{fill:#fff;}</style></defs><title>safeguard-icon</title><g id="Layer_2" data-name="Layer 2"><g id="Camada_1" data-name="Camada 1"><path class="cls-1" d="M104.75,96.3A302,302,0,0,1,63.27,57.59,1.63,1.63,0,0,0,62,57h-.29q.08-2.6.08-5.32a1.64,1.64,0,1,0-3.27,0q0,2.75-.08,5.32h-.14a1.64,1.64,0,0,0-1.23.55c-4.62,5.25-9.3,10.12-13.78,14.53V35.19a1.63,1.63,0,0,0-.16-.68,1.59,1.59,0,0,0,.22-.78,8.82,8.82,0,0,0-8.81-8.81H31.41l9.21-6.38a1.63,1.63,0,0,0,.71-1.34v-14a1.64,1.64,0,0,0-2.57-1.34L27.5,9.62v-8A1.64,1.64,0,0,0,25.86,0H18.74a1.64,1.64,0,0,0-1.64,1.64v8L5.78,1.8A1.64,1.64,0,0,0,3.21,3.14v14a1.64,1.64,0,0,0,.71,1.35l9.23,6.4H8.79A8.81,8.81,0,0,0,0,33.74a1.62,1.62,0,0,0,.32.92,1.65,1.65,0,0,0-.11.53v37a1.59,1.59,0,0,0-.2.74,23.51,23.51,0,0,0,.14,2.5,21.66,21.66,0,0,0,18.05,18.9c-1.6,1.26-2.54,2-2.58,2a1.64,1.64,0,0,0,1,3h8.72v12.26a1.64,1.64,0,0,0,1.39,1.62,14,14,0,0,0,2,.12,25.33,25.33,0,0,0,16.41-6.42c6.21-5.33,10.71-13.47,13.47-24.34v29a1.64,1.64,0,0,0,1.63,1.64l33.4.08h0a1.64,1.64,0,0,0,1.64-1.66l-.14-12.32h8.7a1.64,1.64,0,0,0,1-3ZM93.42,96a1.64,1.64,0,0,0-1.64,1.66L91.93,110l-30.1-.07v-49A312.87,312.87,0,0,0,99,96ZM43,104.28A22,22,0,0,1,28.71,110h-.12V97.62A1.64,1.64,0,0,0,27,96H21.38A312.63,312.63,0,0,0,58.29,61.19C56.82,86.9,49.37,98.79,43,104.28ZM11.68,69V55.64a1.64,1.64,0,1,0-3.27,0V68.92a32.19,32.19,0,0,0,.18,4.66H3.49V36.83H40.05V73.58H11.89A30.23,30.23,0,0,1,11.68,69ZM8.22,74.65l4.12-.2c.6,3.77,2.45,8.56,7.89,9.17A2,2,0,0,1,20,87.7h-.23C12.06,86.82,9.06,80.3,8.22,74.65ZM27.93,13.3l10.12-7V16.35l-10.12,7Zm-7.55-10h3.85V24.33H20.38Zm-13.9,3,10.12,7V23.34l-10.12-7Z"/><path class="cls-1" d="M83.48,89.26H79.66a.52.52,0,0,0-.52.52v5.46H74.39V89.78a.52.52,0,0,0-.52-.52H70.06a.52.52,0,0,0-.52.52v15.54a.52.52,0,0,0,.52.52h3.82a.52.52,0,0,0,.52-.52V99.68h4.75v5.64a.52.52,0,0,0,.52.52h3.82a.52.52,0,0,0,.52-.52V89.78A.52.52,0,0,0,83.48,89.26Z"/></g></g></svg>