<svg xmlns="http://www.w3.org/2000/svg" viewBox="0 0 236.95 79.69"><defs><style>.cls-1{fill:#00b8f1;}.cls-2{fill:#9f66a9;}.cls-3{fill:#50b748;}.cls-4{fill:#f05a22;}.cls-5{fill:#f9a51a;}.cls-6{fill:#a5cd39;}</style></defs><title>Asset 1</title><g id="Layer_2" data-name="Layer 2"><g id="Layer_1-2" data-name="Layer 1"><path class="cls-1" d="M111.12,18.31h-2.44l-2.76-9.1-2.76,9.1h-2.44l-4-15h3.05l2.32,9.46,2.74-9.46H107l2.74,9.46,2.34-9.46h3.06Z"/><path class="cls-1" d="M124.81,17a5.82,5.82,0,0,1-8.1,0c-1.52-1.52-1.47-3.39-1.47-6s0-4.46,1.47-6a5.82,5.82,0,0,1,8.1,0c1.52,1.51,1.5,3.39,1.5,6S126.33,15.46,124.81,17ZM122.64,6.79a2.44,2.44,0,0,0-1.87-.8,2.48,2.48,0,0,0-1.89.8c-.57.63-.72,1.33-.72,4.21s.15,3.58.72,4.21a2.47,2.47,0,0,0,1.89.8,2.43,2.43,0,0,0,1.87-.8c.57-.63.74-1.33.74-4.21S123.21,7.42,122.64,6.79Z"/><path class="cls-1" d="M136,18.31l-2.94-6H131v6h-3v-15h6c3.13,0,5,2.09,5,4.59a4,4,0,0,1-2.8,3.94l3.43,6.47Zm-2.26-12H131v4h2.79a2,2,0,1,0,0-4Z"/><path class="cls-1" d="M141,18.31v-15h3v12h6v3Z"/><path class="cls-1" d="M161.32,16.88a5.46,5.46,0,0,1-4,1.43H152v-15h5.41a5.47,5.47,0,0,1,4,1.43c1.69,1.69,1.52,3.75,1.52,6S163,15.19,161.32,16.88Zm-1.87-9.62a2.68,2.68,0,0,0-2.24-.95H155v10h2.26a2.67,2.67,0,0,0,2.24-.95c.56-.69.65-1.79.65-4.11S160,7.95,159.45,7.26Z"/><path class="cls-1" d="M106,38.31v-6h-5v6H98v-14h3v6h5v-7h3v15Z"/><path class="cls-1" d="M117.45,38.42a5.2,5.2,0,0,1-5.5-5.26V23.31h3v9.75a2.51,2.51,0,1,0,5,0V23.31h3v9.85A5.2,5.2,0,0,1,117.45,38.42Z"/><path class="cls-1" d="M136,38.31V29.72l-3,5.59h-2l-3-5.59v8.59h-3v-15h3l4,8.11,4-8.11h3v15Z"/><path class="cls-1" d="M149.23,39.31l-.88-3H143l-.91,3h-3.5l5.82-16h2.45l5.84,16Zm-3.5-11.45-1.89,5.45h3.73Z"/><path class="cls-1" d="M162.2,38.31,156,29.1v9.21h-3v-15h2.75L162,32.5V23.31h3v15Z"/><path class="cls-1" d="M167,38.31v-15h3v15Z"/><path class="cls-1" d="M178,26.31v12h-3v-12h-4v-3h11v3Z"/><path class="cls-1" d="M190.56,39.31l-.88-3h-5.32l-.9,3h-3.5l5.82-16h2.45l5.84,16Zm-3.49-11.45-1.89,5.45h3.73Z"/><path class="cls-1" d="M203,38.31l-2.94-6H198v6h-3v-15h6c3.13,0,5,2.09,5,4.59a4.05,4.05,0,0,1-2.81,3.94l3.43,6.47Zm-2.26-12H198v4h2.79a2,2,0,1,0,0-4Z"/><path class="cls-1" d="M208,38.31v-15h3v15Z"/><path class="cls-1" d="M221.85,39.31l-.88-3h-5.33l-.9,3h-3.5l5.82-16h2.45l5.84,16Zm-3.49-11.45-1.89,5.45h3.72Z"/><path class="cls-1" d="M234.2,38.31,228,29.1v9.21h-2v-15h2.75L235,32.5V23.31h2v15Z"/><path class="cls-1" d="M102.46,59.21a7,7,0,0,1-5.47-2l1.89-1.89a4.9,4.9,0,0,0,3.62,1.26c1.73,0,2.65-.65,2.65-1.85a1.67,1.67,0,0,0-.46-1.26,2.24,2.24,0,0,0-1.33-.53l-1.81-.25a5.08,5.08,0,0,1-2.9-1.24,4,4,0,0,1-1.07-2.95c0-2.67,2-4.55,5.22-4.55a6.42,6.42,0,0,1,4.84,1.75l-1.85,1.83a4.17,4.17,0,0,0-3.07-1c-1.56,0-2.31.86-2.31,1.9a1.45,1.45,0,0,0,.44,1.07,2.59,2.59,0,0,0,1.39.59l1.77.25a5,5,0,0,1,2.86,1.16A4.2,4.2,0,0,1,108,54.66C108,57.57,105.6,59.21,102.46,59.21Z"/><path class="cls-1" d="M115.45,59.42a5.2,5.2,0,0,1-5.5-5.26V44.31h3v9.75a2.51,2.51,0,1,0,5,0V44.31h3v9.85A5.2,5.2,0,0,1,115.45,59.42Z"/><path class="cls-1" d="M133,59.31V50.72l-3,5.59h-2l-3-5.59v8.59h-3v-15h3l4,8.11,4-8.11h3v15Z"/><path class="cls-1" d="M149,59.31V50.72l-3,5.59h-2l-3-5.59v8.59h-3v-15h3l4,8.11,4-8.11h3v15Z"/><path class="cls-1" d="M153,59.31v-15h3v15Z"/><path class="cls-1" d="M165,47.31v12h-3v-12h-4v-3h11v3Z"/><path class="cls-2" d="M61.88,19.2a12.08,12.08,0,0,1-9.59-1.33,12,12,0,0,1-5.66-15L41.53,0a17.38,17.38,0,0,0-.45,11.48,17.73,17.73,0,0,0,8.64,10.93,17.91,17.91,0,0,0,13.87,1.82A17.09,17.09,0,0,0,73.16,18L68,15.08A11.94,11.94,0,0,1,61.88,19.2Z"/><circle class="cls-2" cx="57.33" cy="8.52" r="4.81" transform="translate(21.59 54.15) rotate(-60.38)"/><path class="cls-3" d="M46.67,69.28a12.08,12.08,0,0,1,5.94-7.65,12.05,12.05,0,0,1,15.8,2.56l5.06-3a17.39,17.39,0,0,0-9.73-6.12A18.55,18.55,0,0,0,41.47,68.25a17.1,17.1,0,0,0,.63,11.42l5.06-3A12,12,0,0,1,46.67,69.28Z"/><circle class="cls-3" cx="57.78" cy="70.44" r="4.5" transform="translate(-27.74 39.03) rotate(-30.47)"/><path class="cls-4" d="M33.11,10.41a12.07,12.07,0,0,1-5.93,7.64,12,12,0,0,1-15.8-2.56l-5.06,3a17.36,17.36,0,0,0,9.73,6.12,17.72,17.72,0,0,0,13.78-2,17.9,17.9,0,0,0,8.49-11.11A17.08,17.08,0,0,0,37.69,0L32.62,3A12,12,0,0,1,33.11,10.41Z"/><circle class="cls-4" cx="22" cy="9.25" r="4.5" transform="translate(-1.65 12.43) rotate(-30.46)"/><path class="cls-1" d="M68.85,48.47a12.08,12.08,0,0,1-3.58-9,12.08,12.08,0,0,1,3.6-9A12.46,12.46,0,0,1,75,27.17V21.3a17.71,17.71,0,0,0-9.66,5.28,17.74,17.74,0,0,0-5.24,12.9,17.9,17.9,0,0,0,5.26,13A17,17,0,0,0,76,57.68V51.81A11.89,11.89,0,0,1,68.85,48.47Z"/><circle class="cls-1" cx="75.49" cy="39.49" r="4.5"/><path class="cls-5" d="M11.14,31a12.07,12.07,0,0,1,3.58,9,12.08,12.08,0,0,1-3.59,9A11.91,11.91,0,0,1,4,52.32V58.2a17.32,17.32,0,0,0,10.74-5.28A17.74,17.74,0,0,0,19.93,40a17.9,17.9,0,0,0-5.26-13A17.31,17.31,0,0,0,5,21.81v5.88A12.29,12.29,0,0,1,11.14,31Z"/><circle class="cls-5" cx="4.5" cy="40" r="4.5" transform="translate(-35.51 44.45) rotate(-89.93)"/><circle class="cls-6" cx="22.25" cy="70.7" r="4.5" transform="translate(-50.2 55.07) rotate(-60.36)"/><path class="cls-6" d="M17.71,60.49a12.08,12.08,0,0,1,9.59,1.33,12.05,12.05,0,0,1,5.66,15l5.11,2.9a17.37,17.37,0,0,0,.45-11.48,17.7,17.7,0,0,0-8.63-10.92A17.9,17.9,0,0,0,16,55.47,17.08,17.08,0,0,0,6.43,61.7l5.11,2.9A12,12,0,0,1,17.71,60.49Z"/></g></g></svg>