<svg style="position:absolute;width:0;height:0" xmlns="http://www.w3.org/2000/svg" overflow="hidden"><defs><symbol id="icon-whs-logo" viewBox="0 0 94 32"><title>whs-logo</title><path fill="var(--color1,#00b8f1)" d="M44.089 7.585h-.948L42.035 3.99l-1.106 3.595h-.948l-1.58-5.926h1.225l.909 3.714 1.067-3.714h.869l1.067 3.714.909-3.714h1.225zm5.412-.592c-.435.435-.909.632-1.58.632s-1.185-.237-1.62-.632c-.593-.593-.593-1.343-.593-2.37s0-1.778.593-2.37c.435-.435.948-.632 1.62-.632s1.185.237 1.58.632c.593.593.593 1.343.593 2.37s0 1.738-.593 2.37zm-.869-4.03c-.158-.198-.435-.316-.751-.316s-.593.119-.751.316c-.237.237-.277.514-.277 1.659s.039 1.422.277 1.659c.158.198.435.316.751.316s.593-.119.751-.316c.237-.237.277-.514.277-1.659.039-1.146-.039-1.422-.277-1.659zm5.373 4.622l-1.146-2.37h-.83v2.37h-1.146V1.659h2.331c1.225 0 1.936.83 1.936 1.817 0 .83-.514 1.343-1.067 1.541l1.304 2.568h-1.383zm-.909-4.899H51.99v1.58h1.106c.514 0 .83-.316.83-.79s-.316-.79-.83-.79zm2.924 4.899V1.659h1.146v4.899h2.41v1.027H56.02zm7.901-.553c-.395.395-.948.553-1.58.553h-2.133V1.659h2.133c.632 0 1.185.158 1.58.553.672.672.593 1.462.593 2.37s.079 1.778-.593 2.449zm-.79-3.99c-.198-.237-.474-.356-.869-.356h-.869v3.872h.869c.395 0 .672-.119.869-.356.198-.277.237-.672.237-1.58s-.039-1.304-.237-1.58zM42.193 15.605v-2.489h-2.015v2.489h-1.146V9.679h1.146v2.41h2.015v-2.41h1.146v5.926zm4.227.039c-1.225 0-2.173-.83-2.173-2.094V9.639h1.146v3.832c0 .672.395 1.106 1.027 1.106s1.027-.395 1.027-1.106V9.639h1.146v3.911c0 1.264-.988 2.094-2.173 2.094zm7.229-.039v-3.437l-1.146 2.252h-.79l-1.146-2.252v3.437h-1.146V9.679h1.146l1.541 3.2 1.541-3.2h1.146v5.926zm5.492 0l-.356-1.067h-2.094l-.356 1.067H55.11l2.173-5.926h.909l2.173 5.926H59.14zm-1.383-4.188l-.751 2.173h1.462l-.711-2.173zm6.4 4.188l-2.331-3.635v3.635h-1.146V9.679h1.027l2.331 3.635V9.679h1.146v5.926zm2.015 0V9.679h1.146v5.926zm4.346-4.899v4.899h-1.146v-4.899h-1.541V9.679h4.267v1.027zm4.938 4.899l-.356-1.067h-2.094l-.356 1.067h-1.225l2.173-5.926h.909l2.173 5.926h-1.225zm-1.383-4.188l-.751 2.173h1.462l-.711-2.173zm6.242 4.188l-1.146-2.37h-.83v2.37h-1.146V9.679h2.331c1.225 0 1.936.83 1.936 1.817 0 .83-.514 1.343-1.067 1.541l1.304 2.568h-1.383zm-.909-4.899h-1.106v1.58h1.106c.514 0 .83-.316.83-.79s-.316-.79-.83-.79zm2.766 4.899V9.679h1.146v5.926zm5.649 0l-.356-1.067h-2.094l-.356 1.067h-1.225l2.173-5.926h.909l2.173 5.926h-1.225zm-1.383-4.188l-.751 2.173h1.462l-.711-2.173zm6.401 4.188l-2.331-3.635v3.635h-1.146V9.679h1.027l2.331 3.635V9.679h1.146v5.926zm-52.188 8.059c-.909 0-1.58-.198-2.173-.79l.751-.751c.356.356.869.514 1.422.514.672 0 1.067-.277 1.067-.751 0-.198-.039-.395-.198-.514-.119-.119-.237-.158-.514-.198l-.711-.119c-.514-.079-.869-.237-1.146-.474-.277-.277-.435-.672-.435-1.146 0-1.067.79-1.778 2.054-1.778.83 0 1.422.198 1.896.672l-.751.711c-.356-.356-.83-.395-1.225-.395-.632 0-.909.356-.909.751 0 .158.039.316.158.435s.316.198.553.237l.711.119c.553.079.869.237 1.146.474.316.316.474.751.474 1.264.039 1.106-.909 1.738-2.173 1.738zm4.978 0c-1.225 0-2.173-.83-2.173-2.094v-3.911h1.146v3.832c0 .672.395 1.106 1.027 1.106s1.027-.395 1.027-1.106v-3.832h1.146v3.911c0 1.264-.948 2.094-2.173 2.094zm7.071-.039v-3.477L51.555 22.4h-.79l-1.146-2.252v3.437h-1.146v-5.926h1.146l1.541 3.2 1.541-3.2h1.146v5.926h-1.146zm6.163 0v-3.477L57.718 22.4h-.79l-1.146-2.252v3.437h-1.146v-5.926h1.146l1.541 3.2 1.541-3.2h1.146v5.926h-1.146zm1.936 0v-5.926h1.146v5.926zm4.385-4.899v4.899h-1.146v-4.899h-1.541v-1.027h4.267v1.027z"/><path fill="var(--color2,#9f66a9)" d="M24.652 7.862c-1.264.356-2.528.198-3.793-.514s-2.054-1.699-2.37-3.002c-.277-.988-.198-1.936.158-2.923L16.593.277c-.553 1.422-.632 2.923-.198 4.543.553 1.896 1.659 3.319 3.398 4.306s3.556 1.225 5.491.711c1.58-.395 2.844-1.225 3.793-2.449l-2.015-1.146a4.782 4.782 0 0 1-2.41 1.62z"/><path fill="var(--color2,#9f66a9)" d="M23.771 1.993a1.897 1.897 0 1 1-1.875 3.297 1.897 1.897 0 0 1 1.875-3.297z"/><path fill="var(--color3,#50b748)" d="M18.647 27.654c.316-1.304 1.106-2.291 2.331-3.002s2.489-.909 3.793-.593c.988.277 1.778.79 2.449 1.58l2.015-1.185c-.948-1.225-2.252-2.015-3.832-2.41-1.896-.474-3.714-.198-5.452.79-1.699.988-2.844 2.489-3.358 4.385-.435 1.58-.356 3.081.237 4.504l2.015-1.185c-.395-.948-.474-1.896-.198-2.884z"/><path fill="var(--color3,#50b748)" d="M24.554 27.183a1.778 1.778 0 1 1-3.066 1.803 1.778 1.778 0 0 1 3.066-1.803z"/><path fill="var(--color4,#f05a22)" d="M13.274 4.385c-.316 1.304-1.106 2.291-2.331 3.002s-2.489.909-3.793.593c-.988-.277-1.778-.79-2.449-1.58L2.686 7.585C3.634 8.81 4.938 9.6 6.518 9.995c1.896.474 3.714.198 5.452-.79 1.699-.988 2.844-2.489 3.358-4.385.435-1.58.356-3.081-.237-4.504l-2.015 1.185c.356.909.435 1.896.198 2.884z"/><path fill="var(--color4,#f05a22)" d="M10.413 3.008a1.778 1.778 0 1 1-3.066 1.803 1.778 1.778 0 0 1 3.066-1.803z"/><path fill="var(--color1,#00b8f1)" d="M27.378 19.437c-.948-.948-1.422-2.133-1.422-3.556s.474-2.607 1.422-3.556c.711-.711 1.58-1.146 2.607-1.304V8.69c-1.541.198-2.884.909-4.03 2.094-1.383 1.383-2.054 3.081-2.054 5.096 0 1.975.672 3.674 2.094 5.136 1.146 1.185 2.489 1.857 4.03 2.094v-2.331c-1.027-.198-1.936-.632-2.647-1.343z"/><path fill="var(--color1,#00b8f1)" d="M31.802 15.881a1.778 1.778 0 1 1-3.556 0 1.778 1.778 0 0 1 3.556 0z"/><path fill="var(--color5,#f9a51a)" d="M4.583 12.523c.948.948 1.422 2.133 1.422 3.556s-.474 2.607-1.422 3.556c-.711.711-1.58 1.146-2.607 1.304v2.331c1.541-.198 2.884-.909 4.03-2.094 1.383-1.383 2.054-3.081 2.054-5.096 0-1.975-.672-3.674-2.094-5.136C4.82 9.759 3.477 9.087 1.936 8.85v2.331c1.067.198 1.936.632 2.647 1.343z"/><path fill="var(--color5,#f9a51a)" d="M1.971 14.289a1.776 1.776 0 1 1-.005 3.555 1.776 1.776 0 1 1 .005-3.555z"/><path fill="var(--color6,#a5cd39)" d="M9.857 26.666a1.778 1.778 0 1 1-1.758 3.09 1.778 1.778 0 0 1 1.758-3.09z"/><path fill="var(--color6,#a5cd39)" d="M7.19 24.178c1.264-.356 2.528-.198 3.793.514s2.054 1.699 2.37 3.002c.277.988.198 1.936-.158 2.923l2.015 1.146c.553-1.422.632-2.923.158-4.543-.553-1.896-1.659-3.319-3.398-4.306s-3.556-1.225-5.491-.711c-1.58.395-2.844 1.225-3.793 2.449l2.015 1.146c.711-.79 1.501-1.343 2.489-1.62z"/></symbol><symbol id="icon-safeguard" viewBox="0 0 30 32"><title>safeguard</title><path fill="var(--color7,#fff)" d="M29.598 27.211a86.14 86.14 0 0 1-11.646-10.852c-.16-.188-.287-.252-.429-.252h-.086q.023-.735.023-1.503l.001-.036a.463.463 0 1 0-.924.038q0 .775-.023 1.502h-.041a.464.464 0 0 0-.346.155 79.184 79.184 0 0 1-3.894 4.106V9.945a.47.47 0 0 0-.046-.195.41.41 0 0 0 .063-.217 2.493 2.493 0 0 0-2.489-2.49h-.885l2.602-1.803a.464.464 0 0 0 .201-.379V.905a.463.463 0 0 0-.727-.377L7.772 2.72V.46a.463.463 0 0 0-.463-.458H5.297a.463.463 0 0 0-.463.463v2.26L1.635.51a.463.463 0 0 0-.726.378v3.956c0 .158.079.297.199.38l2.61 1.809H2.486A2.49 2.49 0 0 0 .002 9.522v.012a.455.455 0 0 0 .091.261.407.407 0 0 0-.032.148v10.456a.449.449 0 0 0-.057.209c.001.25.015.496.042.737a6.124 6.124 0 0 0 5.062 5.305c-.416.361-.682.57-.693.57a.463.463 0 0 0 .258.848l.026-.001h2.463v3.464c0 .231.169.422.39.457.159.022.339.035.522.035h.049a7.135 7.135 0 0 0 4.641-1.82c1.748-1.5 3.019-3.8 3.799-6.871v8.194c0 .255.206.462.46.463l9.438.023a.463.463 0 0 0 .463-.463v-.006l-.04-3.481h2.458l.025.001a.463.463 0 0 0 .259-.847zm-3.201-.085a.463.463 0 0 0-.463.463v.006l.042 3.486-8.505-.02V17.216a89.08 89.08 0 0 0 10.332 9.776zM12.15 29.465a6.188 6.188 0 0 1-4.03 1.616h-.041v-3.498a.463.463 0 0 0-.449-.458H6.041a89.122 89.122 0 0 0 10.361-9.759c-.347 7.188-2.452 10.548-4.252 12.099zM3.3 19.497v-3.775l.001-.036a.463.463 0 1 0-.926 0l.002.038v3.751a9.127 9.127 0 0 0 .055 1.359l-1.445-.042V10.408h10.33v10.384H3.36a8.325 8.325 0 0 1-.059-1.307zm-.977 1.596l1.164-.056c.17 1.065.692 2.419 2.229 2.591a.578.578 0 0 1-.032 1.153l-.034-.001h-.063c-2.179-.249-3.026-2.091-3.264-3.687zM7.892 3.758l2.86-1.978v2.84l-2.86 1.978zM5.759.932h1.088v5.942H5.759zm-3.928.848l2.86 1.978v2.837l-2.86-1.978z"/><path fill="var(--color7,#fff)" d="M23.588 25.221h-1.079a.147.147 0 0 0-.147.147v1.543H21.02v-1.543a.147.147 0 0 0-.147-.147h-1.077a.147.147 0 0 0-.147.147v4.391c0 .081.066.147.147.147h1.079a.147.147 0 0 0 .147-.147v-1.594h1.342v1.594c0 .081.066.147.147.147h1.079a.147.147 0 0 0 .147-.147v-4.391a.147.147 0 0 0-.147-.147h-.003z"/></symbol><symbol id="icon-leave-no-one" viewBox="0 0 35 32"><title>leave-no-one</title><path fill="var(--color7,#fff)" d="M31.178 18.187l1.679-1.854a9.222 9.222 0 0 0 2.4-6.22c0-2.717-1.17-5.16-3.034-6.854l-.949-.855A9.238 9.238 0 0 0 25.051.008a9.252 9.252 0 0 0-6.846 3.017L12.651 9.15l-3.645 4.069a.546.546 0 0 0 .036.776c.373.336.81.611 1.288.804L.141 26.085a.548.548 0 0 0-.027.705c.157.202 3.896 4.95 9.237 5.201h.404c4.64 0 8.195-3.674 8.783-4.315l7.72-3.688 1.602-.695a.57.57 0 0 0 .317-.503.54.54 0 0 0-.056-.241 4.46 4.46 0 0 0-.789-1.149c.314 0 .619-.026.917-.076a.879.879 0 0 0 .081-.025c.662.516 1.51.827 2.429.827h.069c.624 0 1.219-.122 1.762-.345a.564.564 0 0 0 .231-.774zM13.465 9.89l5.553-6.121a8.154 8.154 0 0 1 6.048-2.677c2.113 0 4.038.802 5.488 2.118l.934.842a8.146 8.146 0 0 1 2.681 6.049 8.13 8.13 0 0 1-2.122 5.49l-1.441 1.59-3.818-6.471a.538.538 0 0 0-.473-.283h-.014l-3.744.096a5.374 5.374 0 0 0 2.391-3.904.55.55 0 0 0-1.088-.159c-.438 3.594-4.185 4.1-4.765 4.157l-1.113.028.616-.687a.548.548 0 0 0-.814-.738l-3.374 3.708a3.27 3.27 0 0 1-2.438 1.088c-.647 0-1.25-.187-1.758-.511zm2.334 7.752l2.648 4.592c-1.433.565-2.179-.141-2.323-.305l-1.837-3.309a.91.91 0 0 1 .326-1.243.914.914 0 0 1 1.18.278zm3.654 4.134l-2.617-4.538c0-.02-.017-.042-.028-.065s-.051-.076-.076-.116l-.794-1.373a.912.912 0 0 1 1.046-1.332.793.793 0 0 1 .478.381l.002.024 2.574 4.476 1.046 1.794zm2.642-1.192l-1.096-1.89-1.433-2.487a.677.677 0 0 0-.036-.08l-.62-1.073a.91.91 0 0 1 .332-1.247.923.923 0 0 1 1.254.318l1.217 2.118c.043.112.086.205.136.294l.616 1.065a.458.458 0 0 0 .096.121l.489.848a4.617 4.617 0 0 0 1.014 1.491 4.316 4.316 0 0 0-1.766.427zm.608-5.296a.923.923 0 0 1 1.281-.591.94.94 0 0 1 .396.369l1.008 1.756 1.888 3.264c.016.027.031.05.049.072l.095.149c-2.447.059-3.326-2.074-3.363-2.17a.404.404 0 0 0-.038-.078l-1.307-2.273a.899.899 0 0 1 .001-.507zm5.533 4.256l-.025-.045-1.874-3.227-1.006-1.746a2.008 2.008 0 0 0-3.409-.12l-.471-.804a2.012 2.012 0 0 0-3.51.032 2.01 2.01 0 0 0-1.21-.403 2.01 2.01 0 0 0-1.781 2.948c-.33.003-.63.096-.89.248a2.005 2.005 0 0 0-.726 2.74l1.851 3.336c.014.027.029.05.046.072.451.587 1.822 1.471 3.774.612l3.778-1.695c.411-.2.895-.317 1.405-.317 1.089 0 2.054.532 2.649 1.351l-1.039.464h-.017l-7.816 3.753a.558.558 0 0 0-.175.135c-.04.043-3.753 4.239-8.391 4.016-4.032-.186-7.175-3.357-8.124-4.425l10.309-11.371a4.869 4.869 0 0 0 .628-.001 4.333 4.333 0 0 0 2.992-1.439l1.75-1.875 2.125-.054h.124l6.793-.184 3.956 6.757a.554.554 0 0 0 .111.19l1.446 2.464c-.848.161-2.331.172-3.292-1.413z"/></symbol><symbol id="icon-ending-need" viewBox="0 0 31 32"><title>ending-need</title><path fill="var(--color7,#fff)" d="M30.924 16.618a2.436 2.436 0 0 0-1.048-.233h-.01a2.52 2.52 0 0 0-2.165 1.244.555.555 0 0 0-.095.141l-2.165 4.627-3.924.625.678-.6a1.974 1.974 0 0 0 .186-2.775l-.118-.16a.461.461 0 0 0-.682-.064l-5.925 5.272-6.049-5.272a.46.46 0 0 0-.674.069l-.121.164a1.958 1.958 0 0 0 .183 2.765l.68.602-3.924-.625-2.161-4.625a.427.427 0 0 0-.09-.129 2.525 2.525 0 0 0-3.236-1.019.463.463 0 0 0-.208.61l.82 1.805 2.486 5.345c.169.358.466.633.831.77l6.673 3.053v3.324c0 .255.207.462.462.462h8.54a.465.465 0 0 0 .465-.465v-3.316l6.66-3.052c.375-.139.672-.415.837-.764l2.501-5.365.818-1.805a.467.467 0 0 0-.221-.61zM11.517 27.49L4.532 24.3a.583.583 0 0 1-.326-.296l-2.502-5.351-.6-1.323a1.59 1.59 0 0 1 1.652.879.466.466 0 0 0 .072.114l2.183 4.683a.467.467 0 0 0 .345.26l5.751.917a.462.462 0 0 0 .384-.792l-1.875-1.657a1.043 1.043 0 0 1-.367-.708c-.002-.024-.002-.047-.002-.07 0-.181.045-.351.125-.5l5.634 4.905c-.645.804-1.802 2.66-1.886 5.712h-1.331v-3.156a.469.469 0 0 0-.277-.422zm17.969-8.846l-2.495 5.353a.58.58 0 0 1-.327.296l-.04.018-6.948 3.178a.468.468 0 0 0-.28.423v3.159h-5.348c.112-3.719 1.987-5.471 2.004-5.488l5.763-5.124a1.045 1.045 0 0 1-.232 1.266l-1.879 1.657a.465.465 0 0 0 .381.807l5.746-.927a.465.465 0 0 0 .349-.258l2.185-4.684a.495.495 0 0 0 .069-.104 1.592 1.592 0 0 1 1.666-.898z"/><path fill="var(--color7,#fff)" d="M8.938 13.602h.524l.653 4.266a.676.676 0 0 0 .643.642.695.695 0 0 0 .638-.64.67.67 0 0 0 .655.645.577.577 0 0 0 .468-.242l-.501-4.029a.98.98 0 0 1-.364-.654c-.002-.02-.002-.037-.002-.055l.002-.053c-.042-.611-.151-2.072-.182-2.52 0-.14-.017-.238-.017-.356v-.003c0-1.055.854-1.911 1.908-1.914h.09c1.056 0 1.913.855 1.914 1.911 0 .118 0 .216-.017.356-.031.462-.137 1.92-.179 2.523l.001.05-.002.053a.992.992 0 0 1-.36.655l-.487 4.088a.94.94 0 0 0 1.717-.297l.024-.006V18c.106.45.503.779.978.779h.031a.562.562 0 0 1-.258-.436v-.002l-.499-3.125h-.401a.46.46 0 0 1-.46-.46v-.087l-.001-.015.002-.016 1.079-5.188.025-.109c.141-.55.632-.949 1.216-.95h.076c.585 0 1.077.4 1.217.941l.338 1.64.118.561.653 3.108a.076.076 0 0 1-.001.031v.084a.462.462 0 0 1-.462.462h-.42l-.519 3.097a.634.634 0 0 1-.231.419.764.764 0 0 0 .179.021h.024a.86.86 0 0 0 .843-.687l.026-.006a.939.939 0 0 0 .905.715.858.858 0 0 0 .858-.84l.76-6.047c.25-.205.418-.5.456-.835a.875.875 0 0 0 0-.137c.051-.776.188-2.615.227-3.201 0-.179.025-.3.025-.451a2.422 2.422 0 0 0-2.422-2.419h-.119a2.4 2.4 0 0 0-1.701.704 2.609 2.609 0 0 0-2.48-1.813H16a2.601 2.601 0 0 0-2.601 2.577 1.048 1.048 0 1 1-.259.019l-.058-.304-.028-.146a1.655 1.655 0 0 0-1.565-1.23h-.117A1.65 1.65 0 0 0 9.78 5.873l-.033.157-1.401 6.803-.001.02.001.02v.114a.6.6 0 0 0 .6.6h.006zm8.902-7.901a1.093 1.093 0 1 1-1.096 1.093c0-.604.489-1.093 1.093-1.093h.003zm-1.822-2.856a1.42 1.42 0 1 0 0-2.841 1.42 1.42 0 0 0 0 2.841z"/><path fill="var(--color7,#fff)" d="M17.778 18.412s.017-.017.022-.028 0-.028 0-.042l-.017.07zm2.548-14.39h.003a1.32 1.32 0 1 0-1.32-1.32 1.32 1.32 0 0 0 1.317 1.32zm-8.896-.006a1.547 1.547 0 1 0-.007-3.095 1.547 1.547 0 0 0 .007 3.095z"/></symbol><symbol id="icon-public" viewBox="0 0 35 32"><title>public</title><path fill="none" stroke="var(--color7,#fff)" stroke-width="1.039" stroke-miterlimit="10" d="M27.718 20.539l1.254 3.86h4.054l-3.281 2.384 1.254 3.856-3.281-2.384-3.281 2.384 1.254-3.856-3.281-2.384h4.054l1.254-3.86zm-7.45 9.777H.519v-5.63s.346-8.637 10.64-8.637m15.692 2.054s-2.813-2.079-5.845-2.079"/><path fill="none" stroke="var(--color7,#fff)" stroke-width="1.039" stroke-miterlimit="10" d="M10.824 16.052C8.43 14.524 7.19 11.939 7.19 9.008c0-4.688 4.033-8.489 9.008-8.489s9.008 3.811 9.008 8.489a8.336 8.336 0 0 1-3.759 6.91"/></symbol><symbol id="icon-about" viewBox="0 0 37 32"><title>about</title><path fill="none" stroke="var(--color7,#fff)" stroke-width=".906" stroke-miterlimit="10" d="M4.531 14.446H2.605a2.054 2.054 0 0 1-2.152-1.92v-.006a2.053 2.053 0 0 1 2.157-1.925h1.921V8.27H2.605A2.053 2.053 0 0 1 .453 6.35v-.006A2.053 2.053 0 0 1 2.61 4.419h1.921V2.72S4.246.454 7.59.454h2.325m2.492-.001h22.43a2.35 2.35 0 0 1 2.093 2.5v26.333s-.394 2.266-2.66 2.266H12.407m-2.493-.001H6.683s-2.152-.227-2.152-1.926v-2.379H2.605a2.053 2.053 0 0 1-2.152-1.92v-.006a2.053 2.053 0 0 1 2.157-1.925h1.921V21.07H2.605a2.053 2.053 0 0 1-2.152-1.92v-.006a2.053 2.053 0 0 1 2.157-1.925h1.921"/><path fill="none" stroke="var(--color7,#fff)" stroke-width=".906" stroke-miterlimit="10" d="M30.147 16c0 5.263-4.266 9.529-9.529 9.529S11.089 21.263 11.089 16s4.266-9.529 9.529-9.529 9.529 4.266 9.529 9.529z"/><path fill="none" stroke="var(--color7,#fff)" stroke-width="1.359" stroke-miterlimit="10" stroke-linecap="round" d="M17.219 16.598l2.519-2.152s.979-.807 1.785 0-.254 1.899-.254 1.899l-2.605 2.551s-.734.766.199 1.699 3.485-1.414 3.965-1.899"/><path fill="var(--color7,#fff)" d="M23.354 11.242a1.205 1.205 0 1 1-2.41 0 1.205 1.205 0 0 1 2.41 0z"/></symbol><symbol id="icon-document" viewBox="0 0 25 32"><title>document</title><path fill="var(--color7,#fff)" d="M20.733 32H4.622A4.626 4.626 0 0 1 0 27.378V4.622A4.626 4.626 0 0 1 4.622 0h12.864l7.851 7.492v19.886A4.626 4.626 0 0 1 20.734 32zM4.622 1.22a3.403 3.403 0 0 0-3.398 3.398v22.76a3.403 3.403 0 0 0 3.398 3.398h16.111a3.403 3.403 0 0 0 3.398-3.398V8.015l-7.097-6.791z"/><path fill="var(--color7,#fff)" d="M24.743 8.517h-3.251a4.56 4.56 0 0 1-4.538-4.56V.39h1.233v3.562a3.34 3.34 0 0 0 3.317 3.34h3.253zM5.039 11.378h15.654v1.526H5.039v-1.526zm0 2.484h15.654v1.526H5.039v-1.526zm0 3.092h15.654v1.526H5.039v-1.526zm0 3.091h15.654v1.526H5.039v-1.526zm0 3.097h11.875v1.526H5.039v-1.526z"/></symbol><symbol id="icon-special-sessions" viewBox="0 0 34 32"><title>special-sessions</title><path fill="none" stroke="var(--color7,#fff)" stroke-width=".916" stroke-miterlimit="10" d="M.458 2.442h32.994v29.099H.458V2.442z"/><path fill="var(--color7,#fff)" d="M4.124 0h1.755v5.806H4.124V0zm8.134 0h1.755v5.806h-1.755V0zm7.676 0h1.755v5.806h-1.755V0zm8.134 0h1.755v5.806h-1.755V0z"/><path fill="none" stroke="var(--color7,#fff)" stroke-width="1.375" stroke-miterlimit="10" d="M17.377 26.542l-2.204-5.792-6.186.307 4.825-3.886-2.2-5.788 5.183 3.386 4.825-3.881-1.622 5.98 5.187 3.386-6.191.307-1.618 5.98z"/></symbol><symbol id="icon-roundtables" viewBox="0 0 43 32"><title>roundtables</title><path fill="var(--color7,#fff)" d="M7.275 32c-.076-.225 5.7-21.293 5.7-21.293h17.32L35.991 32zm-.824-3.226a3.226 3.226 0 1 1-6.452 0 3.226 3.226 0 0 1 6.452 0zm36.891 0a3.226 3.226 0 1 1-6.452 0 3.226 3.226 0 0 1 6.452 0zM8.133 20.319a2.623 2.623 0 1 1-5.036 1.469 2.623 2.623 0 0 1 5.036-1.469zm31.978.731a2.623 2.623 0 1 1-5.245 0 2.623 2.623 0 0 1 5.245 0zm-29.764-6.523a2.101 2.101 0 1 1-4.203 0 2.101 2.101 0 0 1 4.203 0zM24.159 1.818a1.818 1.818 0 1 1-3.636 0 1.818 1.818 0 0 1 3.636 0zm12.884 12.709a2.101 2.101 0 1 1-4.203 0 2.101 2.101 0 0 1 4.203 0z"/><path fill="var(--color7,#fff)" d="M19.871 10.703l-.675-4.535s-.504-2.249 2.87-2.249c4.274 0 3.374 2.083 3.374 2.083l-.958 5.003z"/></symbol><symbol id="icon-invest" viewBox="0 0 31 32"><title>invest</title><path fill="var(--color7,#fff)" d="M6.658 17.658a.292.292 0 0 0-.001.001zm.736-5.535l.411-.519a9.846 9.846 0 0 0-1.784.795zm2.417 12.22a.442.442 0 0 0-.43-.367h-.017a.436.436 0 0 0-.427.348l-.243 1.148a.448.448 0 0 0 .433.538.457.457 0 0 0 .185-.043l.405-.181a.446.446 0 0 0 .256-.483z"/><path fill="var(--color7,#fff)" d="M31.142 5.929L25.146.132A.48.48 0 0 0 24.814 0h-8.379a.481.481 0 0 0-.377.184l-4.415 5.707h-.215a3.758 3.758 0 0 0-3.636 4.695c-4.55 1.366-7.797 5.524-7.797 10.44 0 6.034 4.892 10.926 10.926 10.926s10.926-4.892 10.926-10.926c0-4.58-2.818-8.501-6.814-10.126.04-.336.114-.694.131-1.067l4.754-.008a6.56 6.56 0 0 0 4.961 2.262h.006a7.711 7.711 0 0 0 2.987-.751c1.333-.645 3.08-2.055 3.414-4.999a.478.478 0 0 0-.143-.4zM17.788 3.863h3.126a1.104 1.104 0 1 1 0 2.208l-.808-.014h-4.039zM2.916 15.203h.028l1.035-.381a.45.45 0 0 0 .25-.608l-.153-.334c.521-.5 1.1-.946 1.724-1.327.018.012 0 .057-.008.105l-.138.918a.312.312 0 0 0 .075.257l.027.027-2.395 1.506a.317.317 0 0 0-.148.267c0 .018.002.035.004.053l.094.627-1.076.828a.314.314 0 0 0 .061.551l.83.359-.552-.03-.026-.001a.318.318 0 0 0-.25.122l-1.195 1.579a9.886 9.886 0 0 1 1.835-4.555zm8.507-1.81a3.72 3.72 0 0 0 1.91-.525c.346.109.641.208.928.323.02.012.076.09.076.181v.96a.22.22 0 0 1-.099.184.226.226 0 0 1-.118.034h-.005a.204.204 0 0 1-.089-.02 7.004 7.004 0 0 0-2.932-.631 7.11 7.11 0 0 0-2.54.466c.027-.008.001-.003-.026-.003a.219.219 0 0 1-.218-.218v-.953c0-.097.063-.179.15-.207a6.97 6.97 0 0 1 .819-.22c.638.39 1.362.628 2.141.628zM6.71 17.529a.301.301 0 0 1 0 .002zm-3.145.405l.64-.935.828.552a.308.308 0 0 0 .171.052.318.318 0 0 0 .315-.317v-.001a.298.298 0 0 0-.026-.123l.001-.031c.739.67.784.67.902.67h.005a.277.277 0 0 0 .096-.017l.031.001c.232 0 .742.036 1.084.063l-.036.215-.392.19-3.752-.207a.3.3 0 0 0 .129-.109zm3.829-5.811l-1.316.248a9.477 9.477 0 0 1 1.658-.746zm4.023.307a2.795 2.795 0 1 1 0-5.59h.011c.774 0 1.474.317 1.978.827a3.213 3.213 0 0 0-.452 1.653v.003c0 .265.215.48.48.48h.773a2.8 2.8 0 0 1-2.786 2.616zm2.762 17.992l-2.268-.687a.238.238 0 0 0-.079 0l-2.04-.08a.257.257 0 0 0-.101 0c-.016.003-.647.185-1.284.383-.419.132-.723.232-.944.317-3.799-1.459-6.447-5.076-6.451-9.312 0-.312.017-.618.044-.922l1.076 2.042a.316.316 0 0 0 .438.126c.047-.027.274-.154.55-.314.16-.094.276-.171.378-.232.177.121.466.326.748.527l.574 1.931.395 2.892a.312.312 0 0 0 .21.256l1.252.417a.29.29 0 0 0 .223-.007l.197-.079a.304.304 0 0 0 .132-.099l1.071-1.38a.326.326 0 0 0 .055-.114l.676-2.593 1.38-1.595a.313.313 0 0 0 .071-.279.32.32 0 0 0-.172-.218l-.587-.277 1.341-.775a.316.316 0 0 0 .099-.457l-.65-.912 1.421.328 1.476 2.354a.312.312 0 0 0 .565-.067l.45-1.382.599-.552.828.618.168 1.236a.33.33 0 0 0 .056.139l.593.827.29 1.269a.327.327 0 0 0 .314.246.317.317 0 0 0 .312-.317l.002-.033-.002-.034-.301-3.337c1.846-1.672 1.843-1.678 1.752-1.909a.254.254 0 0 0-.042-.078c-.085-.19-.391-1.103-.673-1.991l.022-.03.886.778a.314.314 0 0 0 .344.049l.384-.181a9.807 9.807 0 0 1 .894 4.122 9.955 9.955 0 0 1-6.599 9.373zm10.7-19.303h-.007a5.59 5.59 0 0 1-4.263-1.968.492.492 0 0 0-.441-.284h-6.203a2.343 2.343 0 0 1 2.274-1.851h3.872l.808.017a2.061 2.061 0 0 0 0-4.122h-3.407a.471.471 0 0 0-.446.32l-2.617 3.336v.011l.001.012a3.21 3.21 0 0 0-.424.335 3.69 3.69 0 0 0-1.302-.821L16.671.958h7.946l5.684 5.493c-.668 4.553-5.242 4.663-5.422 4.666z"/><path fill="var(--color7,#fff)" d="M13.219 9.933a.5.5 0 0 0-.664.229 1.26 1.26 0 0 1-.713.643.497.497 0 0 0 .146.972H12c.057 0 .111-.01.161-.029a2.26 2.26 0 0 0 1.282-1.136.504.504 0 0 0-.223-.677zm-3.604-.627c.062.031.136.05.214.05h.009a.49.49 0 0 0 .44-.273 1.262 1.262 0 0 1 1.236-.712h-.004a.5.5 0 0 0 .076-.993 2.245 2.245 0 0 0-2.204 1.255.496.496 0 0 0 .223.676z"/></symbol><symbol id="icon-peace" viewBox="0 0 39 32"><title>peace</title><path fill="var(--color7,#fff)" d="M38.393 16.822l-2.792-4.049a7.089 7.089 0 0 0-4.195-2.549l-4.172-.764a.475.475 0 0 0-.356.076l-1.44 1.001-1.435-.999a.471.471 0 0 0-.357-.076l-3.879.714a6.374 6.374 0 0 1 .842-1.966l.221-.338.048-.085c.26-.29.567-.531.909-.715a7.222 7.222 0 0 1-.039 1.083c0 .194.148.353.337.371h.039c.196 0 .356-.15.374-.341a12.917 12.917 0 0 0 .054-1.461c.1-.022.203-.052.303-.082a.47.47 0 0 0 .003-.908l-.376-.104a9.799 9.799 0 0 0-.8-3.091c-.035-.07-.166-.162-.319-.162a.376.376 0 0 0-.343.53c.326.732.565 1.585.673 2.477l-1.286-.308a2.476 2.476 0 0 0-.314-.236l-.755-.463a2.214 2.214 0 0 0-3.023.694l-1.91 2.398-.303-.566c-1.145-2.077-1.726-4.942-1.729-4.972a.47.47 0 0 0-.666-.335 7.114 7.114 0 0 0-3.519 4.291 4.285 4.285 0 0 1-.782-.298 15.891 15.891 0 0 1-5.131-3.934.469.469 0 0 0-.797.043c-.041.072-3.865 7.27 3.172 12.848a.2.2 0 0 0 .033.024l.343.231-4.679 1.248a.471.471 0 0 0-.275.71c.059.092 1.537 2.357 4.32 2.357.151 0 .303 0 .463-.021a.445.445 0 0 0 .112-.019l3.186-1.095a8.789 8.789 0 0 0 3.482.908c.022.064 0 .122-.006.167a.66.66 0 0 0 .001.163v.027a4.86 4.86 0 0 0 2.077 4.308l.276.18a1.88 1.88 0 0 0 2.632 2.606l.364-.25a1.872 1.872 0 0 0 2.631 1.603c-.005.39.117.744.322 1.037.298.43.769.73 1.313.799-.048.172-.08.369-.08.574a1.878 1.878 0 0 0 2.949 1.543l2.574-1.777c.164-.113.304-.246.421-.398l.709.507c.295.207.661.33 1.056.33h.009c.641 0 1.208-.318 1.551-.806a1.82 1.82 0 0 0 .322-.908c.233.105.506.17.794.17a1.873 1.873 0 0 0 1.874-1.843c.219.099.475.157.744.159a1.89 1.89 0 0 0 1.884-1.836c.217.093.471.148.737.148a1.874 1.874 0 0 0 1.506-2.991 4.71 4.71 0 0 0 .947-2.851 4.775 4.775 0 0 0-.86-2.741zM18.56 5.636a.606.606 0 1 1 0 1.212.606.606 0 0 1 0-1.212zM11.368 17.7a.381.381 0 1 1 .172-.742 5.676 5.676 0 0 0 2.908-.271l.003-.012a.304.304 0 0 1 .084-.021 4.265 4.265 0 0 0 2.534-2.156c.073-.152.201-.238.35-.238a.378.378 0 0 1 .338.543 5.012 5.012 0 0 1-2.931 2.544l-.069.028a.251.251 0 0 1-.059.03 6.412 6.412 0 0 1-2.235.394h-.072c-.362 0-.715-.037-1.057-.106zm4.709 7.874a.965.965 0 0 1-1.312-.236.947.947 0 0 1-.165-.536v-.004c0-.319.159-.6.403-.769l4.097-2.83a.937.937 0 0 1 1.472.774c0 .32-.159.603-.403.774zm3.304 1.187a.968.968 0 0 1-1.307-.24.946.946 0 0 1-.168-.535v-.001c0-.319.159-.6.403-.769l4.1-2.83a.93.93 0 0 1 .53-.167.941.941 0 0 1 .551 1.703zm1.314 1.442a.902.902 0 0 1-.17-.529v-.001a.947.947 0 0 1 .403-.773l4.097-2.827a.94.94 0 0 1 1.072 1.545l-4.088 2.827a.951.951 0 0 1-1.304-.24zm5.806.451a.91.91 0 0 1-.342.458l-2.583 1.777a.96.96 0 0 1-1.303-.236.925.925 0 0 1-.165-.529v-.003a.95.95 0 0 1 .409-.776l2.571-1.786a.934.934 0 0 1 1.303.239.9.9 0 0 1 .109.854zm3.161.293a.965.965 0 0 1-1.321.237l-.872-.585a1.838 1.838 0 0 0-.307-1.338 1.887 1.887 0 0 0-.804-.655l.291-.214c.164-.113.304-.246.421-.398l2.365 1.655a.936.936 0 0 1 .24 1.308zm7.889-4.927a.941.941 0 0 1-1.329.228l-.96-.604-.018-.015-6.172-4.173a.472.472 0 0 0-.527.78l5.924 4.016a.805.805 0 0 0 .039.042l.197.124a.942.942 0 0 1-1.104 1.511l-1.067-.685a.188.188 0 0 0-.038-.015l-5.277-3.634a.469.469 0 1 0-.535.771l5.398 3.714a.938.938 0 0 1-.53 1.714h-.016a.9.9 0 0 1-.514-.16l-1.136-.828c-.015 0-.033 0-.048-.024l-2.404-1.681a1.884 1.884 0 0 0-1.862-2.141 1.857 1.857 0 0 0-.754.162 1.858 1.858 0 0 0-1.862-1.843h-.013c-.397 0-.764.125-1.066.337l-.376.253a1.873 1.873 0 0 0-2.944-1.432l-3.834 2.646-.46-.303a3.906 3.906 0 0 1-1.67-3.596.506.506 0 0 0-.005-.068v.003c0-.079.027-.157.042-.233h.094a6.914 6.914 0 0 0 6.844-6.913v-.439c0-.118 0-.239.021-.36h.039a.36.36 0 0 0 .063-.025l3.935-.72.984.681-4 2.753a.583.583 0 0 0-.162.197.47.47 0 0 0 .03.474 3.748 3.748 0 0 0 5.229.941l.551-.395.303.206c.236.231.511.423.815.565l9.999 6.906a.935.935 0 0 1 .165 1.254zm.042-2.259l-7.97-5.487c.699-.038 1.35-.2 1.946-.465a.466.466 0 0 0 .245-.416.47.47 0 0 0-.662-.429 4.167 4.167 0 0 1-1.748.377 4.233 4.233 0 0 1-1.572-.301l-.659-.465a1.349 1.349 0 0 1-.263-.382.502.502 0 0 0-.679-.223l-.064.038-1.002.718a2.78 2.78 0 0 1-1.596.498 2.798 2.798 0 0 1-2.016-.855l5.702-3.947 3.937.721a6.23 6.23 0 0 1 3.625 2.155l2.801 4.059c.429.612.685 1.372.685 2.192 0 .833-.265 1.605-.715 2.234z"/><path fill="var(--color7,#fff)" d="M19.581 4.04a1.444 1.444 0 0 0 1.522.09c-.003-.04 0-.092 0-.144 0-.511-.266-.96-.668-1.215a1.432 1.432 0 0 0-1.527-.094c.003.04 0 .092 0 .144 0 .511.266.96.668 1.215zm2.738.085a1.439 1.439 0 0 0 1.481-.342 1.44 1.44 0 0 0 .425-1.47 1.718 1.718 0 0 0-.46-.066c-.396 0-.755.16-1.016.418a1.44 1.44 0 0 0-.427 1.47zm.696-2.611a1.435 1.435 0 0 0-.208-1.516c-.552.052-1.01.41-1.206.901a1.443 1.443 0 0 0 .204 1.526 1.451 1.451 0 0 0 1.206-.901zm-2.005.675a1.439 1.439 0 0 0-.142-1.518 1.436 1.436 0 0 0-1.389-.625c-.09.188-.147.411-.147.647 0 .327.109.628.293.87a1.44 1.44 0 0 0 1.392.626z"/></symbol></defs></svg>